<svg width="24" height="28" viewBox="0 0 24 28" fill="none" xmlns="http://www.w3.org/2000/svg">
<path fill-rule="evenodd" clip-rule="evenodd" d="M8.37615 26.115H16.1891V22.9633L16.6514 22.9099C21.5849 22.3386 22.3812 18.4561 22.5062 17.0137H2.05909C2.18353 18.4549 2.97978 22.3381 7.9139 22.9099L8.37615 22.9633V26.115ZM17.2266 27.2059H7.33923V23.9308C0.891189 22.8927 0.998156 16.5177 1.00034 16.4516L1.01562 15.9228H23.5497L23.5644 16.4516C23.5666 16.5177 23.6741 22.8927 17.2266 23.9308V27.2059ZM20.7396 14.2232V2.77994C20.7396 1.7981 20.0028 1 19.1023 1H5.46294C4.56245 1 3.82569 1.7981 3.82569 2.77994V14.2232H4.91719V2.77994C4.91719 2.43544 5.16823 2.14835 5.46294 2.14835H19.1023C19.397 2.14835 19.6481 2.43544 19.6481 2.77994V14.2232H20.7396Z" fill="#738F6F" stroke="#738F6F" stroke-width="0.3"/>
</svg>
