<svg width="30" height="27" viewBox="0 0 30 27" fill="none" xmlns="http://www.w3.org/2000/svg">
<path fill-rule="evenodd" clip-rule="evenodd" d="M28.1075 22.5H1.22207V18C1.22207 16.9393 2.04695 16.0714 3.05516 16.0714H4.88826H13.4427H15.8868H24.4413H26.2744C27.2826 16.0714 28.1075 16.9393 28.1075 18V22.5ZM20.7751 25.7143H23.2192V23.7857H20.7751V25.7143ZM5.4993 25.7143H7.94343V23.7857H5.4993V25.7143ZM12.8317 10.9286V14.7857H5.4993V10.9286C5.4993 10.575 5.77426 10.2857 6.11033 10.2857H12.2207C12.5567 10.2857 12.8317 10.575 12.8317 10.9286ZM23.8364 10.935V14.7857H16.504V10.935C16.504 10.5814 16.7789 10.2921 17.115 10.2921H23.2253C23.5614 10.2921 23.8364 10.5814 23.8364 10.935ZM2.44413 1.99286C2.44413 1.60714 2.7252 1.28571 3.05516 1.28571H26.2744C26.6044 1.28571 26.8854 1.60714 26.8854 1.99286V14.85C26.6899 14.805 26.4821 14.7857 26.2744 14.7857H25.0584V10.935C25.0584 9.87428 24.2335 9.00641 23.2253 9.00641H17.115C16.1068 9.00641 15.2819 9.87428 15.2819 10.935V14.7857H14.0599V10.9286C14.0599 9.86788 13.235 9 12.2268 9H6.11033C5.10212 9 4.27723 9.86788 4.27723 10.9286V14.7857H3.05516C2.8474 14.7857 2.63966 14.8114 2.44413 14.85V1.99286ZM28.1075 15.4479V1.99286C28.1075 0.893573 27.2826 0 26.2744 0H3.05516C2.04695 0 1.22207 0.893573 1.22207 1.99286V15.4479C0.482722 16.0329 0 16.9521 0 18V23.1429C0 23.4965 0.274961 23.7857 0.611028 23.7857H4.27723V26.3571C4.27723 26.7107 4.55219 27 4.88826 27H8.55445C8.89052 27 9.16548 26.7107 9.16548 26.3571V23.7857H19.553V26.3571C19.553 26.7107 19.828 27 20.1641 27H23.8303C24.1663 27 24.4413 26.7107 24.4413 26.3571V23.7857H28.7185C29.0546 23.7857 29.3296 23.4965 29.3296 23.1429V18C29.3296 16.9521 28.8468 16.0329 28.1075 15.4479Z" fill="#738F6F"/>
</svg>
