<?xml version="1.0" encoding="UTF-8"?>
<svg id="Layer_1" data-name="Layer 1" xmlns="http://www.w3.org/2000/svg" viewBox="0 0 1140 382.91">
  <defs>
    <style>
      .cls-1 {
        fill: red;
      }
    </style>
  </defs>
  <path class="cls-1" d="m1135.22,349.32c-287.45-74.07-405.58-255.2-439.7-311.32V5.31c0-1.55-.53-2.83-1.59-3.82-1.06-.99-2.3-1.49-3.72-1.49h-28.89c-1.56,0-2.83.5-3.82,1.49-.99.99-1.49,2.27-1.49,3.82v306.12c-16.05-.19-68.71-.29-85.42-.29h0c-.18,0-.42,0-.61,0h-.61c-16.71,0-69.36.1-85.42.29V5.31c0-1.55-.5-2.83-1.49-3.82-.99-.99-2.27-1.49-3.82-1.49h-28.89c-1.42,0-2.65.5-3.72,1.49-1.06.99-1.59,2.27-1.59,3.82v32.69c-34.13,56.13-152.22,237.25-439.67,311.32-5.23,1.35-5.57,8.71-3.84,18.95,1.94,11.5,5.41,15.61,13.6,14.44,90.59-12.96,171.35-22.85,262.41-29.2.09.16.18.32.26.48.45-.2.88-.39,1.33-.59,47.38-3.29,107.47-5.65,165.9-7.09v31.2c0,1.42.53,2.66,1.59,3.72,1.06,1.06,2.3,1.6,3.72,1.6h28.89c1.56,0,2.83-.53,3.82-1.6.99-1.06,1.49-2.3,1.49-3.72v-32.04c30.9-.55,60.33-.83,86.03-.84,25.7,0,55.13.29,86.03.84v32.04c0,1.42.5,2.66,1.49,3.72.99,1.06,2.27,1.6,3.82,1.6h28.89c1.42,0,2.65-.53,3.72-1.6,1.06-1.06,1.59-2.3,1.59-3.72v-31.2c58.44,1.44,118.53,3.8,165.9,7.09.45.2.87.39,1.33.59.09-.16.17-.32.26-.48,91.07,6.35,171.86,16.25,262.45,29.2,8.19,1.17,11.66-2.95,13.6-14.44,1.73-10.23,1.39-17.6-3.84-18.95Zm-690.78-37.16c-30.35.71-60.72,1.77-91.13,3.23,32.97-19.89,62.29-43.15,91.13-74.33v71.1Zm0-124.84c-53.27,67.61-104.23,100.9-176.16,133.14-38.73,2.75-77.57,6.09-116.56,10.05,157.44-71.13,246.81-168.51,292.72-230.81v87.62Zm251.07,124.84v-71.1c28.83,31.18,58.16,54.44,91.13,74.33-30.4-1.46-60.78-2.52-91.13-3.23Zm176.16,8.3c-71.93-32.24-122.89-65.53-176.16-133.14v-87.62c45.91,62.3,135.28,159.68,292.72,230.81-38.99-3.96-77.83-7.3-116.56-10.05Z"/>
</svg>