<?xml version="1.0" encoding="UTF-8"?>
<svg id="Layer_2" data-name="Layer 2" xmlns="http://www.w3.org/2000/svg" viewBox="0 0 104.39 35.06">
  <g id="Layer_2-2" data-name="Layer 2">
    <path class="cls-1" d="m103.95,31.99c-26.32-6.78-37.14-23.37-40.26-28.51V.49c0-.14-.05-.26-.15-.35-.1-.09-.21-.14-.34-.14h-2.65c-.14,0-.26.05-.35.14s-.14.21-.14.35v28.03c-1.47-.02-6.29-.03-7.82-.03h0s-.04,0-.06,0h-.06c-1.53,0-6.35,0-7.82.03V.49c0-.14-.05-.26-.14-.35s-.21-.14-.35-.14h-2.65c-.13,0-.24.05-.34.14-.1.09-.15.21-.15.35v2.99C37.57,8.62,26.76,25.2.44,31.99c-.48.12-.51.8-.35,1.74.18,1.05.5,1.43,1.25,1.32,8.3-1.19,15.69-2.09,24.03-2.67,0,.01.02.03.02.04.04-.02.08-.04.12-.05,4.34-.3,9.84-.52,15.19-.65v2.86c0,.13.05.24.15.34.1.1.21.15.34.15h2.65c.14,0,.26-.05.35-.15.09-.1.14-.21.14-.34v-2.93c2.83-.05,5.52-.08,7.88-.08,2.35,0,5.05.03,7.88.08v2.93c0,.13.05.24.14.34.09.1.21.15.35.15h2.65c.13,0,.24-.05.34-.15.1-.1.15-.21.15-.34v-2.86c5.35.13,10.85.35,15.19.65.04.02.08.04.12.05,0-.01.02-.03.02-.04,8.34.58,15.74,1.49,24.03,2.67.75.11,1.07-.27,1.25-1.32.16-.94.13-1.61-.35-1.74Zm-63.25-3.4c-2.78.07-5.56.16-8.34.3,3.02-1.82,5.7-3.95,8.34-6.81v6.51Zm0-11.43c-4.88,6.19-9.54,9.24-16.13,12.19-3.55.25-7.1.56-10.67.92,14.42-6.51,22.6-15.43,26.8-21.14v8.02Zm22.99,11.43v-6.51c2.64,2.86,5.33,4.98,8.34,6.81-2.78-.13-5.57-.23-8.34-.3Zm16.13.76c-6.59-2.95-11.25-6-16.13-12.19v-8.02c4.2,5.7,12.39,14.62,26.8,21.14-3.57-.36-7.13-.67-10.67-.92Z"/>
  </g>
</svg>