<?xml version="1.0" encoding="UTF-8"?><svg id="Layer_1" xmlns="http://www.w3.org/2000/svg" viewBox="0 0 288.254 289.229"><path d="M288.254,145.468c-2.407,58.051-27.839,102.005-80.222,128.973-23.794,12.249-49.254,16.403-76.013,14.243-28.265-2.282-54.019-10.715-76.783-27.875-27.239-20.532-44.057-47.659-51.318-80.829C-3.796,144.745-.264,110.67,15.803,78.31c13.59-27.373,34.291-48.096,61.463-62.163C105.568,1.494,135.676-2.833,167.005,1.737c56.505,8.243,93.251,40.755,112.897,93.527,5.976,16.052,8.347,32.877,8.351,50.203ZM25.023,137.162c-.125,33.001,7.563,59.973,19.752,78.62,23.028,35.227,56.288,52.234,97.52,53.224,42.797,1.027,77.65-15.28,101.134-52.173,19.572-30.748,24.956-64.664,17.236-99.825-11.006-50.129-40.897-83.469-92.171-94.475-35.763-7.676-68.735.431-97.315,23.155-31.558,25.092-45.124,59.192-46.156,91.474Z" style="fill:#fff; stroke-width:0px;"/><path d="M92.703,77.287c-4.66,0-8.969-.168-13.258.057-3.036.159-4.297-.954-4.256-3.952.238-17.517-2.23-13.966,13.081-14.187,17.16-.248,34.325-.231,51.487-.201,12.691.022,25.319.848,37.438,5.054,17.529,6.084,28.571,17.273,30.563,36.652,1.672,16.266-1.912,30.579-14.33,41.609-4.497,3.994-10.307,6.539-15.613,9.578-2.089,1.197-4.439,1.938-5.865,2.545,9.058,13.275,17.81,26.292,26.776,39.158,4.356,6.25,8.498,12.965,17.321,13.773.657.06,1.284,1.281,1.764,2.06.23.373.111.977.106,1.476-.147,14.432,1.821,11.759-11.174,11.981-6.497.111-13.017-.294-19.489.124-5.261.34-9.279-1.55-12.002-5.631-8.487-12.719-16.781-25.57-24.981-38.476-2.76-4.344-5.317-8.874-7.415-13.566-1.755-3.925-4.155-5.648-8.448-5.067-2.263.307-4.602.054-7.524.054v44.796c4.169,0,8.765.271,13.312-.079,4.219-.325,5.999.74,5.855,5.389-.45,14.472,1.853,12.361-12.494,12.449-17.496.107-34.994-.103-52.487.118-4.643.059-6.492-1.521-5.893-6.066.108-.819.104-1.677-.005-2.496-.614-4.609.567-7.414,5.927-8.077,6.544-.81,10.379-4.741,10.507-11.745.061-3.325.625-6.643.65-9.966.264-35.163.465-70.327.675-105.491.003-.481-.112-.962-.226-1.872ZM126.942,139.131c8.245,1.623,16.338,1.45,23.811-1.326,5.208-1.935,10.476-5.241,14.195-9.323,7.121-7.817,7.14-17.924,6.201-27.903-.744-7.907-4.497-14.559-11.679-17.393-6.605-2.606-14.07-3.847-21.205-4.064-7.233-.221-11.067,4.026-11.22,11.359-.333,15.982-.103,31.975-.103,48.65Z" style="fill:#fff; stroke-width:0px;"/></svg>