<svg width="62" height="62" viewBox="0 0 62 62" fill="none" xmlns="http://www.w3.org/2000/svg">
<g clip-path="url(#clip0_112_1806)">
<path d="M30.69 18.6C33.79 18.6 36.89 19.84 39.06 22.32L43.4 17.98C39.99 14.26 35.34 12.4 30.69 12.4C25.73 12.4 21.39 14.26 17.67 17.98C10.54 25.11 10.54 36.89 17.67 44.33C21.08 47.74 25.73 49.6 30.69 49.6C35.65 49.6 39.99 47.74 43.71 44.02L39.37 39.68C34.72 44.33 26.97 44.33 22.63 39.68C17.98 34.72 17.98 26.97 22.63 22.01C24.49 19.84 27.28 18.6 30.69 18.6Z" fill="white"/>
<path d="M31 0C13.95 0 0 13.95 0 31C0 48.05 13.95 62 31 62C48.05 62 62 48.05 62 31C62 13.95 48.05 0 31 0ZM31 55.8C17.36 55.8 6.2 44.64 6.2 31C6.2 17.36 17.36 6.2 31 6.2C44.64 6.2 55.8 17.36 55.8 31C55.8 44.64 44.64 55.8 31 55.8Z" fill="white"/>
</g>
<defs>
<clipPath id="clip0_112_1806">
<rect width="62" height="62" fill="white"/>
</clipPath>
</defs>
</svg>
