<svg width="28" height="23" viewBox="0 0 28 23" fill="none" xmlns="http://www.w3.org/2000/svg">
<path fill-rule="evenodd" clip-rule="evenodd" d="M12.6851 11.8558L13.0861 21.5006C13.1065 21.9889 13.5086 22.374 13.998 22.374H14.0229C14.5123 22.374 14.9133 21.9889 14.9348 21.5006L15.3358 11.8558C15.1704 11.9192 14.9915 11.9532 14.8102 11.9532H13.2095C13.0283 11.9532 12.8493 11.9192 12.6839 11.8558H12.6851ZM15.8229 4.35554C15.8229 4.08706 15.7164 3.82878 15.5261 3.63959C15.3369 3.45041 15.0786 3.3428 14.8101 3.3428H13.2095C12.941 3.3428 12.6827 3.44929 12.4935 3.63959C12.3043 3.82877 12.1967 4.08706 12.1967 4.35554V10.4876C12.1967 10.7561 12.3032 11.0143 12.4935 11.2035C12.6827 11.3927 12.941 11.5003 13.2095 11.5003H14.8101C15.0786 11.5003 15.3369 11.3938 15.5261 11.2035C15.7153 11.0144 15.8229 10.7561 15.8229 10.4876V4.35554ZM16.276 6.23715V9.25373L18.2777 10.6833C18.3547 10.7388 18.4476 10.7672 18.5416 10.7672H18.5609C19.8002 10.7672 21.0293 10.5542 22.196 10.1373C23.5509 9.6536 25.3712 9.00336 26.2821 8.67827C26.8032 8.49249 27.151 7.99857 27.151 7.44464V6.68904C27.151 6.43869 26.9482 6.23592 26.6979 6.23592H16.2758L16.276 6.23715ZM11.7447 6.23715H1.32272C0.867337 6.23715 0.869599 6.70161 0.869599 6.70161V7.44587C0.869599 7.99983 1.21737 8.49372 1.73847 8.6795C2.64924 9.00462 4.46969 9.65486 5.82457 10.1385C6.99135 10.5554 8.22046 10.7684 9.45972 10.7684H9.47898C9.573 10.7684 9.66589 10.7389 9.74292 10.6846L11.7446 9.25496L11.7447 6.23715ZM16.2612 4.15277C16.2714 4.21961 16.2759 4.28644 16.2759 4.35555V5.78403H24.1761L25.9954 4.22754C26.5471 3.75516 26.7782 3.00864 26.5913 2.30855C26.5324 2.08992 26.4836 1.90754 26.4746 1.87242C26.3681 1.4748 25.6975 1.60621 25.9172 1.54617L16.2612 4.15277ZM11.7447 5.78402V4.35554C11.7447 4.28417 11.7504 4.21394 11.7606 4.14484C9.39531 3.48894 3.58405 1.88374 2.10331 1.54618C1.62867 1.43856 1.54596 1.87243 1.54596 1.87243C1.54596 1.87243 1.48819 2.08993 1.42928 2.30856C1.24124 3.00865 1.47233 3.7563 2.02515 4.22755L3.84443 5.78403L11.7447 5.78402ZM11.8965 3.70643C11.9668 3.56483 12.0608 3.43342 12.1752 3.32015C12.4494 3.04488 12.8221 2.89081 13.2106 2.89081H14.8113C15.1998 2.89081 15.5725 3.04487 15.8466 3.32015C15.9611 3.43343 16.0539 3.56484 16.1253 3.70643C16.2227 3.45382 16.2771 3.17855 16.2771 2.89081C16.2771 1.64018 15.2621 0.625183 14.0115 0.625183C12.7609 0.625183 11.7459 1.64018 11.7459 2.89081C11.7459 3.17854 11.7991 3.45381 11.8977 3.70643H11.8965Z" fill="#000055"/>
</svg>
