<?xml version="1.0" encoding="UTF-8"?>
<svg fill="#FFFFFF" width="100pt" height="100pt" version="1.1" viewBox="0 0 100 100" xmlns="http://www.w3.org/2000/svg">
 <g>
  <path d="m50 92.711c-1.1172 0-2.0195-0.90625-2.0195-2.0195v-81.383c0-1.1172 0.90625-2.0195 2.0195-2.0195 1.1172 0 2.0195 0.90625 2.0195 2.0195v81.383c0 1.1172-0.90234 2.0195-2.0195 2.0195z"/>
  <path d="m66.754 92.711h-33.512c-1.1172 0-2.0195-0.90625-2.0195-2.0195 0-1.1172 0.90625-2.0195 2.0195-2.0195h33.512c1.1172 0 2.0195 0.90625 2.0195 2.0195 0.003906 1.1172-0.90234 2.0195-2.0195 2.0195z"/>
  <path d="m9.3086 40.055c-0.88672 0-1.6992-0.58594-1.9453-1.4805-0.29688-1.0742 0.33203-2.1914 1.4102-2.4883l77.789-21.547c1.0742-0.29297 2.1914 0.33203 2.4883 1.4102 0.29688 1.0742-0.33203 2.1914-1.4102 2.4883l-77.793 21.543c-0.17969 0.050781-0.36328 0.074219-0.53906 0.074219z"/>
  <path d="m18.883 78.754h-4.7891c-6.3945 0-11.594-5.2031-11.594-11.594 0-2.4336 1.9805-4.4141 4.4141-4.4141h19.148c2.4336 0 4.4141 1.9805 4.4141 4.4141 0.003907 6.3945-5.1992 11.594-11.594 11.594zm-11.969-11.965c-0.20703 0-0.37109 0.16797-0.37109 0.37109 0 4.1641 3.3867 7.5547 7.5547 7.5547h4.7891c4.1641 0 7.5547-3.3867 7.5547-7.5547 0-0.20703-0.16797-0.37109-0.37109-0.37109z"/>
  <path d="m26.062 66.789c-0.84766 0-1.6367-0.53516-1.918-1.3828l-7.6562-22.973-7.6562 22.973c-0.35156 1.0586-1.5 1.6328-2.5586 1.2773-1.0586-0.35156-1.6328-1.5-1.2773-2.5586l9.5742-28.723c0.27344-0.82422 1.0469-1.3828 1.918-1.3828 0.87109 0 1.6406 0.55469 1.918 1.3828l9.5742 28.723c0.35156 1.0586-0.21875 2.2031-1.2773 2.5586-0.21094 0.070312-0.42578 0.10547-0.64062 0.10547z"/>
  <path d="m85.906 60.398h-4.7891c-6.3945 0-11.594-5.2031-11.594-11.594 0-2.4336 1.9805-4.4141 4.4141-4.4141h19.148c2.4336 0 4.4141 1.9805 4.4141 4.4141 0 6.3906-5.2031 11.594-11.594 11.594zm-11.969-11.969c-0.20703 0-0.37109 0.16797-0.37109 0.37109 0 4.1641 3.3867 7.5547 7.5547 7.5547h4.7891c4.1641 0 7.5547-3.3867 7.5547-7.5547 0-0.20703-0.16797-0.37109-0.37109-0.37109z"/>
  <path d="m93.086 48.434c-0.84766 0-1.6367-0.53516-1.918-1.3828l-7.6562-22.973-7.6562 22.973c-0.35156 1.0586-1.5 1.6328-2.5586 1.2773-1.0586-0.35156-1.6328-1.5-1.2773-2.5586l9.5742-28.723c0.27344-0.82422 1.0469-1.3828 1.918-1.3828 0.87109 0 1.6406 0.55469 1.918 1.3828l9.5742 28.723c0.35156 1.0586-0.21875 2.2031-1.2773 2.5586-0.21484 0.070313-0.42969 0.10547-0.64062 0.10547z"/>
 </g>
</svg>
