<svg width="1350" height="60" viewBox="0 0 1350 60" fill="none" xmlns="http://www.w3.org/2000/svg">
<path d="M1272.72 0.00721159C1261.49 0.00721159 1252.36 8.98685 1252.36 20.024C1252.36 25.705 1254.83 31.1418 1259.14 34.9347C1259.18 34.9767 1259.23 35.0108 1259.29 35.045C1259.74 35.389 1262.71 37.7502 1263.11 41.0701C1262.15 41.6663 1261.51 42.7064 1261.51 43.8962V45.2514C1261.51 46.0867 1261.84 46.8405 1262.35 47.4288C1261.84 48.0171 1261.51 48.7709 1261.51 49.6062V50.9614C1261.51 52.8105 1263.04 54.3154 1264.92 54.3154H1266.53C1267.09 57.1783 1269.65 59.3452 1272.72 59.3452C1275.8 59.3452 1278.36 57.1757 1278.92 54.3154H1280.52C1282.4 54.3154 1283.93 52.8105 1283.93 50.9614L1283.93 49.6062C1283.93 48.7709 1283.6 48.0171 1283.09 47.4288C1283.6 46.8405 1283.93 46.0867 1283.93 45.2514V43.8962C1283.93 42.7064 1283.29 41.6663 1282.33 41.0701C1282.71 37.9525 1285.38 35.6569 1286.05 35.1211C1286.12 35.0843 1286.18 35.0423 1286.23 34.9924C1290.58 31.1945 1293.07 25.7391 1293.07 20.0239C1293.07 8.98742 1283.94 0.00721159 1272.72 0.00721159ZM1271 40.5443L1268.61 29.9335L1270.28 27.4016L1271.64 30.2119C1271.84 30.6217 1272.26 30.8817 1272.72 30.8817C1273.18 30.8817 1273.6 30.619 1273.8 30.2119L1275.16 27.4016L1276.83 29.9335L1274.43 40.5443H1271ZM1280.52 42.8977C1281.08 42.8977 1281.53 43.3468 1281.53 43.8984V45.2536C1281.53 45.8052 1281.08 46.2543 1280.52 46.2543L1264.92 46.2517C1264.36 46.2517 1263.9 45.8026 1263.9 45.251V43.8957C1263.9 43.3442 1264.36 42.895 1264.92 42.895L1280.52 42.8977ZM1272.72 56.9914C1270.97 56.9914 1269.49 55.8646 1268.99 54.315H1276.45C1275.94 55.8646 1274.46 56.9914 1272.72 56.9914ZM1281.53 50.961C1281.53 51.5125 1281.08 51.9617 1280.52 51.9617L1264.92 51.959C1264.36 51.959 1263.9 51.5099 1263.9 50.9583V49.6057C1263.9 49.0542 1264.36 48.605 1264.92 48.605H1280.52C1281.08 48.605 1281.53 49.0541 1281.53 49.6057V50.961ZM1284.76 33.1295C1284.26 33.4972 1280.63 36.3049 1280 40.5438H1276.89L1279.2 30.29L1284.54 24.9556C1285.01 24.4933 1285 23.7474 1284.53 23.2904C1284.06 22.8334 1283.3 22.8413 1282.83 23.3035L1278.3 27.8368L1276 24.3567C1275.76 23.9995 1275.36 23.7999 1274.92 23.8236C1274.48 23.8524 1274.1 24.1072 1273.92 24.4907L1272.72 26.9675L1271.52 24.4933C1271.34 24.1098 1270.95 23.8524 1270.52 23.8262C1270.09 23.7999 1269.67 24.0022 1269.44 24.3594L1267.14 27.8395L1262.6 23.3061C1262.14 22.8439 1261.38 22.836 1260.91 23.293C1260.44 23.7474 1260.43 24.4933 1260.9 24.9582L1266.23 30.2926L1268.55 40.5464H1265.44C1264.81 36.3073 1261.17 33.4972 1260.68 33.1321C1256.91 29.7859 1254.76 25.0138 1254.76 20.0287C1254.76 10.29 1262.81 2.36532 1272.72 2.36532C1282.62 2.36532 1290.68 10.2893 1290.68 20.0287C1290.68 25.0138 1288.53 29.781 1284.76 33.1295Z" fill="#436C8F" fill-opacity="0.41"/>
<path d="M589.612 0.00721159C578.388 0.00721159 569.256 8.98685 569.256 20.024C569.256 25.705 571.726 31.1418 576.032 34.9347C576.078 34.9767 576.128 35.0108 576.179 35.045C576.636 35.389 579.606 37.7502 579.999 41.0701C579.045 41.6663 578.407 42.7064 578.407 43.8962V45.2514C578.407 46.0867 578.73 46.8405 579.245 47.4288C578.73 48.0171 578.407 48.7709 578.407 49.6062V50.9614C578.407 52.8105 579.937 54.3154 581.818 54.3154H583.42C583.981 57.1783 586.545 59.3452 589.617 59.3452C592.689 59.3452 595.25 57.1757 595.814 54.3154H597.417C599.297 54.3154 600.828 52.8105 600.828 50.9614L600.82 49.6062C600.82 48.7709 600.496 48.0171 599.981 47.4288C600.496 46.8405 600.82 46.0867 600.82 45.2514V43.8962C600.82 42.7064 600.181 41.6663 599.228 41.0701C599.602 37.9525 602.27 35.6569 602.948 35.1211C603.01 35.0843 603.071 35.0423 603.127 34.9924C607.476 31.1945 609.968 25.7391 609.968 20.0239C609.968 8.98742 600.836 0.00721159 589.612 0.00721159ZM587.897 40.5443L585.499 29.9335L587.173 27.4016L588.533 30.2119C588.731 30.6217 589.153 30.8817 589.612 30.8817C590.074 30.8817 590.494 30.619 590.691 30.2119L592.051 27.4016L593.725 29.9335L591.327 40.5443H587.897ZM597.409 42.8977C597.97 42.8977 598.426 43.3468 598.426 43.8984V45.2536C598.426 45.8052 597.97 46.2543 597.409 46.2543L581.815 46.2517C581.254 46.2517 580.797 45.8026 580.797 45.251V43.8957C580.797 43.3442 581.254 42.895 581.815 42.895L597.409 42.8977ZM589.612 56.9914C587.868 56.9914 586.388 55.8646 585.881 54.315H593.344C592.836 55.8646 591.356 56.9914 589.612 56.9914ZM598.427 50.961C598.427 51.5125 597.97 51.9617 597.409 51.9617L581.815 51.959C581.254 51.959 580.798 51.5099 580.798 50.9583V49.6057C580.798 49.0542 581.254 48.605 581.815 48.605H597.409C597.97 48.605 598.427 49.0541 598.427 49.6057V50.961ZM601.656 33.1295C601.157 33.4972 597.524 36.3049 596.891 40.5438H593.779L596.098 30.29L601.435 24.9556C601.899 24.4933 601.891 23.7474 601.421 23.2904C600.951 22.8334 600.192 22.8413 599.728 23.3035L595.195 27.8368L592.892 24.3567C592.657 23.9995 592.249 23.7999 591.811 23.8236C591.378 23.8524 590.996 24.1072 590.809 24.4907L589.612 26.9675L588.416 24.4933C588.229 24.1098 587.847 23.8524 587.414 23.8262C586.984 23.7999 586.567 24.0022 586.332 24.3594L584.03 27.8395L579.497 23.3061C579.035 22.8439 578.276 22.836 577.804 23.293C577.334 23.7474 577.326 24.4933 577.79 24.9582L583.127 30.2926L585.446 40.5464H582.334C581.701 36.3073 578.068 33.4972 577.569 33.1321C573.805 29.7859 571.65 25.0138 571.65 20.0287C571.65 10.29 579.708 2.36532 589.613 2.36532C599.517 2.36532 607.576 10.2893 607.576 20.0287C607.576 25.0138 605.42 29.781 601.656 33.1295Z" fill="#436C8F" fill-opacity="0.41"/>
<path d="M931.165 0.00721159C919.941 0.00721159 910.809 8.98685 910.809 20.024C910.809 25.705 913.279 31.1418 917.585 34.9347C917.631 34.9767 917.681 35.0108 917.732 35.045C918.189 35.389 921.159 37.7502 921.552 41.0701C920.598 41.6663 919.96 42.7064 919.96 43.8962V45.2514C919.96 46.0867 920.283 46.8405 920.798 47.4288C920.283 48.0171 919.96 48.7709 919.96 49.6062V50.9614C919.96 52.8105 921.49 54.3154 923.371 54.3154H924.973C925.534 57.1783 928.098 59.3452 931.17 59.3452C934.242 59.3452 936.803 57.1757 937.367 54.3154H938.97C940.85 54.3154 942.381 52.8105 942.381 50.9614L942.373 49.6062C942.373 48.7709 942.049 48.0171 941.534 47.4288C942.049 46.8405 942.373 46.0867 942.373 45.2514V43.8962C942.373 42.7064 941.734 41.6663 940.781 41.0701C941.155 37.9525 943.823 35.6569 944.501 35.1211C944.563 35.0843 944.624 35.0423 944.68 34.9924C949.029 31.1945 951.521 25.7391 951.521 20.0239C951.521 8.98742 942.389 0.00721159 931.165 0.00721159ZM929.45 40.5443L927.052 29.9335L928.726 27.4016L930.086 30.2119C930.284 30.6217 930.706 30.8817 931.165 30.8817C931.627 30.8817 932.047 30.619 932.244 30.2119L933.604 27.4016L935.278 29.9335L932.88 40.5443H929.45ZM938.962 42.8977C939.523 42.8977 939.979 43.3468 939.979 43.8984V45.2536C939.979 45.8052 939.523 46.2543 938.962 46.2543L923.368 46.2517C922.807 46.2517 922.35 45.8026 922.35 45.251V43.8957C922.35 43.3442 922.807 42.895 923.368 42.895L938.962 42.8977ZM931.165 56.9914C929.421 56.9914 927.941 55.8646 927.434 54.315H934.897C934.389 55.8646 932.909 56.9914 931.165 56.9914ZM939.98 50.961C939.98 51.5125 939.523 51.9617 938.962 51.9617L923.368 51.959C922.807 51.959 922.351 51.5099 922.351 50.9583V49.6057C922.351 49.0542 922.807 48.605 923.368 48.605H938.962C939.523 48.605 939.98 49.0541 939.98 49.6057V50.961ZM943.209 33.1295C942.71 33.4972 939.077 36.3049 938.444 40.5438H935.332L937.651 30.29L942.987 24.9556C943.452 24.4933 943.444 23.7474 942.974 23.2904C942.504 22.8334 941.745 22.8413 941.281 23.3035L936.748 27.8368L934.445 24.3567C934.21 23.9995 933.802 23.7999 933.364 23.8236C932.931 23.8524 932.549 24.1072 932.362 24.4907L931.165 26.9675L929.969 24.4933C929.782 24.1098 929.4 23.8524 928.967 23.8262C928.537 23.7999 928.12 24.0022 927.885 24.3594L925.583 27.8395L921.05 23.3061C920.588 22.8439 919.829 22.836 919.357 23.293C918.887 23.7474 918.879 24.4933 919.343 24.9582L924.68 30.2926L926.999 40.5464H923.887C923.254 36.3073 919.621 33.4972 919.122 33.1321C915.358 29.7859 913.203 25.0138 913.203 20.0287C913.203 10.29 921.261 2.36532 931.166 2.36532C941.07 2.36532 949.129 10.2893 949.129 20.0287C949.129 25.0138 946.973 29.781 943.209 33.1295Z" fill="#436C8F" fill-opacity="0.41"/>
<path d="M248.058 0.00721159C236.835 0.00721159 227.702 8.98685 227.702 20.024C227.702 25.705 230.173 31.1418 234.479 34.9347C234.524 34.9767 234.575 35.0108 234.625 35.045C235.082 35.389 238.052 37.7502 238.445 41.0701C237.491 41.6663 236.853 42.7064 236.853 43.8962V45.2514C236.853 46.0867 237.176 46.8405 237.692 47.4288C237.176 48.0171 236.853 48.7709 236.853 49.6062V50.9614C236.853 52.8105 238.384 54.3154 240.264 54.3154H241.867C242.428 57.1783 244.992 59.3452 248.064 59.3452C251.135 59.3452 253.697 57.1757 254.26 54.3154H255.863C257.743 54.3154 259.274 52.8105 259.274 50.9614L259.266 49.6062C259.266 48.7709 258.943 48.0171 258.427 47.4288C258.943 46.8405 259.266 46.0867 259.266 45.2514V43.8962C259.266 42.7064 258.628 41.6663 257.674 41.0701C258.048 37.9525 260.716 35.6569 261.395 35.1211C261.456 35.0843 261.518 35.0423 261.574 34.9924C265.922 31.1945 268.414 25.7391 268.414 20.0239C268.414 8.98742 259.283 0.00721159 248.058 0.00721159ZM246.344 40.5443L243.945 29.9335L245.62 27.4016L246.979 30.2119C247.177 30.6217 247.599 30.8817 248.058 30.8817C248.521 30.8817 248.94 30.619 249.138 30.2119L250.497 27.4016L252.172 29.9335L249.773 40.5443H246.344ZM255.855 42.8977C256.416 42.8977 256.873 43.3468 256.873 43.8984V45.2536C256.873 45.8052 256.416 46.2543 255.855 46.2543L240.261 46.2517C239.7 46.2517 239.244 45.8026 239.244 45.251V43.8957C239.244 43.3442 239.7 42.895 240.261 42.895L255.855 42.8977ZM248.059 56.9914C246.314 56.9914 244.835 55.8646 244.327 54.315H251.79C251.283 55.8646 249.803 56.9914 248.059 56.9914ZM256.873 50.961C256.873 51.5125 256.417 51.9617 255.856 51.9617L240.262 51.959C239.701 51.959 239.244 51.5099 239.244 50.9583V49.6057C239.244 49.0542 239.701 48.605 240.262 48.605H255.856C256.417 48.605 256.873 49.0541 256.873 49.6057V50.961ZM260.103 33.1295C259.603 33.4972 255.971 36.3049 255.337 40.5438H252.226L254.544 30.29L259.881 24.9556C260.346 24.4933 260.338 23.7474 259.868 23.2904C259.397 22.8334 258.639 22.8413 258.174 23.3035L253.641 27.8368L251.339 24.3567C251.104 23.9995 250.695 23.7999 250.257 23.8236C249.824 23.8524 249.442 24.1072 249.255 24.4907L248.059 26.9675L246.862 24.4933C246.675 24.1098 246.293 23.8524 245.861 23.8262C245.431 23.7999 245.014 24.0022 244.779 24.3594L242.476 27.8395L237.944 23.3061C237.482 22.8439 236.723 22.836 236.25 23.293C235.78 23.7474 235.772 24.4933 236.237 24.9582L241.574 30.2926L243.892 40.5464H240.78C240.147 36.3073 236.515 33.4972 236.015 33.1321C232.252 29.7859 230.096 25.0138 230.096 20.0287C230.096 10.29 238.154 2.36532 248.059 2.36532C257.964 2.36532 266.022 10.2893 266.022 20.0287C266.022 25.0138 263.866 29.781 260.103 33.1295Z" fill="#436C8F" fill-opacity="0.41"/>
<path d="M1101.94 0.00721159C1090.72 0.00721159 1081.59 8.98685 1081.59 20.024C1081.59 25.705 1084.06 31.1418 1088.36 34.9347C1088.41 34.9767 1088.46 35.0108 1088.51 35.045C1088.97 35.389 1091.94 37.7502 1092.33 41.0701C1091.37 41.6663 1090.74 42.7064 1090.74 43.8962V45.2514C1090.74 46.0867 1091.06 46.8405 1091.58 47.4288C1091.06 48.0171 1090.74 48.7709 1090.74 49.6062V50.9614C1090.74 52.8105 1092.27 54.3154 1094.15 54.3154H1095.75C1096.31 57.1783 1098.88 59.3452 1101.95 59.3452C1105.02 59.3452 1107.58 57.1757 1108.14 54.3154H1109.75C1111.63 54.3154 1113.16 52.8105 1113.16 50.9614L1113.15 49.6062C1113.15 48.7709 1112.83 48.0171 1112.31 47.4288C1112.83 46.8405 1113.15 46.0867 1113.15 45.2514V43.8962C1113.15 42.7064 1112.51 41.6663 1111.56 41.0701C1111.93 37.9525 1114.6 35.6569 1115.28 35.1211C1115.34 35.0843 1115.4 35.0423 1115.46 34.9924C1119.81 31.1945 1122.3 25.7391 1122.3 20.0239C1122.3 8.98742 1113.17 0.00721159 1101.94 0.00721159ZM1100.23 40.5443L1097.83 29.9335L1099.5 27.4016L1100.86 30.2119C1101.06 30.6217 1101.48 30.8817 1101.94 30.8817C1102.4 30.8817 1102.82 30.619 1103.02 30.2119L1104.38 27.4016L1106.06 29.9335L1103.66 40.5443H1100.23ZM1109.74 42.8977C1110.3 42.8977 1110.76 43.3468 1110.76 43.8984V45.2536C1110.76 45.8052 1110.3 46.2543 1109.74 46.2543L1094.14 46.2517C1093.58 46.2517 1093.13 45.8026 1093.13 45.251V43.8957C1093.13 43.3442 1093.58 42.895 1094.14 42.895L1109.74 42.8977ZM1101.94 56.9914C1100.2 56.9914 1098.72 55.8646 1098.21 54.315H1105.67C1105.17 55.8646 1103.69 56.9914 1101.94 56.9914ZM1110.76 50.961C1110.76 51.5125 1110.3 51.9617 1109.74 51.9617L1094.15 51.959C1093.58 51.959 1093.13 51.5099 1093.13 50.9583V49.6057C1093.13 49.0542 1093.58 48.605 1094.15 48.605H1109.74C1110.3 48.605 1110.76 49.0541 1110.76 49.6057V50.961ZM1113.99 33.1295C1113.49 33.4972 1109.85 36.3049 1109.22 40.5438H1106.11L1108.43 30.29L1113.76 24.9556C1114.23 24.4933 1114.22 23.7474 1113.75 23.2904C1113.28 22.8334 1112.52 22.8413 1112.06 23.3035L1107.52 27.8368L1105.22 24.3567C1104.99 23.9995 1104.58 23.7999 1104.14 23.8236C1103.71 23.8524 1103.33 24.1072 1103.14 24.4907L1101.94 26.9675L1100.75 24.4933C1100.56 24.1098 1100.18 23.8524 1099.74 23.8262C1099.31 23.7999 1098.9 24.0022 1098.66 24.3594L1096.36 27.8395L1091.83 23.3061C1091.36 22.8439 1090.61 22.836 1090.13 23.293C1089.66 23.7474 1089.66 24.4933 1090.12 24.9582L1095.46 30.2926L1097.78 40.5464H1094.66C1094.03 36.3073 1090.4 33.4972 1089.9 33.1321C1086.13 29.7859 1083.98 25.0138 1083.98 20.0287C1083.98 10.29 1092.04 2.36532 1101.94 2.36532C1111.85 2.36532 1119.91 10.2893 1119.91 20.0287C1119.91 25.0138 1117.75 29.781 1113.99 33.1295Z" fill="#DA9E00"/>
<path d="M418.835 0.00721159C407.611 0.00721159 398.479 8.98685 398.479 20.024C398.479 25.705 400.949 31.1418 405.255 34.9347C405.301 34.9767 405.351 35.0108 405.402 35.045C405.859 35.389 408.829 37.7502 409.222 41.0701C408.268 41.6663 407.63 42.7064 407.63 43.8962V45.2514C407.63 46.0867 407.953 46.8405 408.469 47.4288C407.953 48.0171 407.63 48.7709 407.63 49.6062V50.9614C407.63 52.8105 409.16 54.3154 411.041 54.3154H412.643C413.204 57.1783 415.769 59.3452 418.84 59.3452C421.912 59.3452 424.474 57.1757 425.037 54.3154H426.64C428.52 54.3154 430.051 52.8105 430.051 50.9614L430.043 49.6062C430.043 48.7709 429.72 48.0171 429.204 47.4288C429.72 46.8405 430.043 46.0867 430.043 45.2514V43.8962C430.043 42.7064 429.404 41.6663 428.451 41.0701C428.825 37.9525 431.493 35.6569 432.172 35.1211C432.233 35.0843 432.294 35.0423 432.351 34.9924C436.699 31.1945 439.191 25.7391 439.191 20.0239C439.191 8.98742 430.06 0.00721159 418.835 0.00721159ZM417.12 40.5443L414.722 29.9335L416.397 27.4016L417.756 30.2119C417.954 30.6217 418.376 30.8817 418.835 30.8817C419.297 30.8817 419.717 30.619 419.914 30.2119L421.274 27.4016L422.949 29.9335L420.55 40.5443H417.12ZM426.632 42.8977C427.193 42.8977 427.65 43.3468 427.65 43.8984V45.2536C427.65 45.8052 427.193 46.2543 426.632 46.2543L411.038 46.2517C410.477 46.2517 410.02 45.8026 410.02 45.251V43.8957C410.02 43.3442 410.477 42.895 411.038 42.895L426.632 42.8977ZM418.835 56.9914C417.091 56.9914 415.611 55.8646 415.104 54.315H422.567C422.059 55.8646 420.58 56.9914 418.835 56.9914ZM427.65 50.961C427.65 51.5125 427.193 51.9617 426.632 51.9617L411.039 51.959C410.478 51.959 410.021 51.5099 410.021 50.9583V49.6057C410.021 49.0542 410.478 48.605 411.039 48.605H426.632C427.193 48.605 427.65 49.0541 427.65 49.6057V50.961ZM430.879 33.1295C430.38 33.4972 426.747 36.3049 426.114 40.5438H423.002L425.321 30.29L430.658 24.9556C431.122 24.4933 431.114 23.7474 430.644 23.2904C430.174 22.8334 429.416 22.8413 428.951 23.3035L424.418 27.8368L422.116 24.3567C421.881 23.9995 421.472 23.7999 421.034 23.8236C420.601 23.8524 420.219 24.1072 420.032 24.4907L418.836 26.9675L417.639 24.4933C417.452 24.1098 417.07 23.8524 416.637 23.8262C416.207 23.7999 415.791 24.0022 415.556 24.3594L413.253 27.8395L408.72 23.3061C408.258 22.8439 407.5 22.836 407.027 23.293C406.557 23.7474 406.549 24.4933 407.014 24.9582L412.35 30.2926L414.669 40.5464H411.557C410.924 36.3073 407.291 33.4972 406.792 33.1321C403.028 29.7859 400.873 25.0138 400.873 20.0287C400.873 10.29 408.931 2.36532 418.836 2.36532C428.741 2.36532 436.799 10.2893 436.799 20.0287C436.799 25.0138 434.643 29.781 430.879 33.1295Z" fill="#436C8F" fill-opacity="0.41"/>
<path d="M760.388 0.00721159C749.165 0.00721159 740.032 8.98685 740.032 20.024C740.032 25.705 742.503 31.1418 746.808 34.9347C746.854 34.9767 746.905 35.0108 746.955 35.045C747.412 35.389 750.382 37.7502 750.775 41.0701C749.821 41.6663 749.183 42.7064 749.183 43.8962V45.2514C749.183 46.0867 749.506 46.8405 750.022 47.4288C749.506 48.0171 749.183 48.7709 749.183 49.6062V50.9614C749.183 52.8105 750.714 54.3154 752.594 54.3154H754.197C754.758 57.1783 757.322 59.3452 760.394 59.3452C763.465 59.3452 766.027 57.1757 766.59 54.3154H768.193C770.073 54.3154 771.604 52.8105 771.604 50.9614L771.596 49.6062C771.596 48.7709 771.273 48.0171 770.757 47.4288C771.273 46.8405 771.596 46.0867 771.596 45.2514V43.8962C771.596 42.7064 770.958 41.6663 770.004 41.0701C770.378 37.9525 773.046 35.6569 773.725 35.1211C773.786 35.0843 773.848 35.0423 773.904 34.9924C778.252 31.1945 780.744 25.7391 780.744 20.0239C780.744 8.98742 771.613 0.00721159 760.388 0.00721159ZM758.674 40.5443L756.275 29.9335L757.95 27.4016L759.309 30.2119C759.507 30.6217 759.929 30.8817 760.388 30.8817C760.851 30.8817 761.27 30.619 761.468 30.2119L762.827 27.4016L764.502 29.9335L762.103 40.5443H758.674ZM768.185 42.8977C768.746 42.8977 769.203 43.3468 769.203 43.8984V45.2536C769.203 45.8052 768.746 46.2543 768.185 46.2543L752.591 46.2517C752.03 46.2517 751.574 45.8026 751.574 45.251V43.8957C751.574 43.3442 752.03 42.895 752.591 42.895L768.185 42.8977ZM760.389 56.9914C758.644 56.9914 757.165 55.8646 756.657 54.315H764.12C763.613 55.8646 762.133 56.9914 760.389 56.9914ZM769.203 50.961C769.203 51.5125 768.747 51.9617 768.186 51.9617L752.592 51.959C752.031 51.959 751.574 51.5099 751.574 50.9583V49.6057C751.574 49.0542 752.031 48.605 752.592 48.605H768.186C768.747 48.605 769.203 49.0541 769.203 49.6057V50.961ZM772.433 33.1295C771.933 33.4972 768.3 36.3049 767.667 40.5438H764.556L766.874 30.29L772.211 24.9556C772.676 24.4933 772.668 23.7474 772.198 23.2904C771.727 22.8334 770.969 22.8413 770.504 23.3035L765.971 27.8368L763.669 24.3567C763.434 23.9995 763.025 23.7999 762.587 23.8236C762.154 23.8524 761.772 24.1072 761.585 24.4907L760.389 26.9675L759.192 24.4933C759.005 24.1098 758.623 23.8524 758.191 23.8262C757.761 23.7999 757.344 24.0022 757.109 24.3594L754.806 27.8395L750.274 23.3061C749.811 22.8439 749.053 22.836 748.58 23.293C748.11 23.7474 748.102 24.4933 748.567 24.9582L753.904 30.2926L756.222 40.5464H753.11C752.477 36.3073 748.844 33.4972 748.345 33.1321C744.581 29.7859 742.426 25.0138 742.426 20.0287C742.426 10.29 750.484 2.36532 760.389 2.36532C770.294 2.36532 778.352 10.2893 778.352 20.0287C778.352 25.0138 776.196 29.781 772.433 33.1295Z" fill="#436C8F" fill-opacity="0.41"/>
<path d="M77.2822 0.00721159C66.0585 0.00721159 56.9258 8.98685 56.9258 20.024C56.9258 25.705 59.3965 31.1418 63.7023 34.9347C63.7477 34.9767 63.7984 35.0108 63.8492 35.045C64.3059 35.389 67.2761 37.7502 67.6688 41.0701C66.7152 41.6663 66.0768 42.7064 66.0768 43.8962V45.2514C66.0768 46.0867 66.4 46.8405 66.9156 47.4288C66.4001 48.0171 66.0768 48.7709 66.0768 49.6062V50.9614C66.0768 52.8105 67.6074 54.3154 69.4878 54.3154H71.0905C71.6514 57.1783 74.2156 59.3452 77.2873 59.3452C80.359 59.3452 82.9206 57.1757 83.4842 54.3154H85.0868C86.9672 54.3154 88.4978 52.8105 88.4978 50.9614L88.4898 49.6062C88.4898 48.7709 88.1666 48.0171 87.651 47.4288C88.1665 46.8405 88.4898 46.0867 88.4898 45.2514V43.8962C88.4898 42.7064 87.8514 41.6663 86.8978 41.0701C87.2718 37.9525 89.9402 35.6569 90.6186 35.1211C90.68 35.0843 90.7415 35.0423 90.7976 34.9924C95.1461 31.1945 97.6382 25.7391 97.6382 20.0239C97.6382 8.98742 88.5066 0.00721159 77.2822 0.00721159ZM75.5674 40.5443L73.1688 29.9335L74.8436 27.4016L76.2031 30.2119C76.4008 30.6217 76.8228 30.8817 77.2822 30.8817C77.7443 30.8817 78.1637 30.619 78.3613 30.2119L79.7209 27.4016L81.3956 29.9335L78.997 40.5443H75.5674ZM85.0789 42.8977C85.6399 42.8977 86.0966 43.3468 86.0966 43.8984V45.2536C86.0966 45.8052 85.6399 46.2543 85.0789 46.2543L69.4851 46.2517C68.9242 46.2517 68.4674 45.8026 68.4674 45.251V43.8957C68.4674 43.3442 68.9242 42.895 69.4851 42.895L85.0789 42.8977ZM77.2824 56.9914C75.5381 56.9914 74.0584 55.8646 73.5509 54.315H81.0138C80.5063 55.8646 79.0266 56.9914 77.2824 56.9914ZM86.0971 50.961C86.0971 51.5125 85.6403 51.9617 85.0794 51.9617L69.4856 51.959C68.9247 51.959 68.4679 51.5099 68.4679 50.9583V49.6057C68.4679 49.0542 68.9246 48.605 69.4856 48.605H85.0794C85.6403 48.605 86.0971 49.0541 86.0971 49.6057V50.961ZM89.3264 33.1295C88.8269 33.4972 85.1943 36.3049 84.5612 40.5438H81.4494L83.7679 30.29L89.1047 24.9556C89.5694 24.4933 89.5614 23.7474 89.0913 23.2904C88.6212 22.8334 87.8626 22.8413 87.3979 23.3035L82.8651 27.8368L80.5626 24.3567C80.3276 23.9995 79.9189 23.7999 79.4809 23.8236C79.0482 23.8524 78.6662 24.1072 78.4792 24.4907L77.2826 26.9675L76.086 24.4933C75.899 24.1098 75.517 23.8524 75.0844 23.8262C74.6543 23.7999 74.2376 24.0022 74.0026 24.3594L71.7001 27.8395L67.1674 23.3061C66.7053 22.8439 65.9467 22.836 65.4739 23.293C65.0038 23.7474 64.9958 24.4933 65.4605 24.9582L70.7973 30.2926L73.1158 40.5464H70.004C69.3709 36.3073 65.7383 33.4972 65.2388 33.1321C61.4753 29.7859 59.3198 25.0138 59.3198 20.0287C59.3198 10.29 67.3782 2.36532 77.2829 2.36532C87.1876 2.36532 95.2461 10.2893 95.2461 20.0287C95.2461 25.0138 93.09 29.781 89.3264 33.1295Z" fill="#436C8F" fill-opacity="0.41"/>
<path d="M1215.79 0.00721159C1204.57 0.00721159 1195.44 8.98685 1195.44 20.024C1195.44 25.705 1197.91 31.1418 1202.21 34.9347C1202.26 34.9767 1202.31 35.0108 1202.36 35.045C1202.82 35.389 1205.79 37.7502 1206.18 41.0701C1205.23 41.6663 1204.59 42.7064 1204.59 43.8962V45.2514C1204.59 46.0867 1204.91 46.8405 1205.43 47.4288C1204.91 48.0171 1204.59 48.7709 1204.59 49.6062V50.9614C1204.59 52.8105 1206.12 54.3154 1208 54.3154H1209.6C1210.16 57.1783 1212.73 59.3452 1215.8 59.3452C1218.87 59.3452 1221.43 57.1757 1221.99 54.3154H1223.6C1225.48 54.3154 1227.01 52.8105 1227.01 50.9614L1227 49.6062C1227 48.7709 1226.68 48.0171 1226.16 47.4288C1226.68 46.8405 1227 46.0867 1227 45.2514V43.8962C1227 42.7064 1226.36 41.6663 1225.41 41.0701C1225.78 37.9525 1228.45 35.6569 1229.13 35.1211C1229.19 35.0843 1229.25 35.0423 1229.31 34.9924C1233.66 31.1945 1236.15 25.7391 1236.15 20.0239C1236.15 8.98742 1227.02 0.00721159 1215.79 0.00721159ZM1214.08 40.5443L1211.68 29.9335L1213.35 27.4016L1214.71 30.2119C1214.91 30.6217 1215.33 30.8817 1215.79 30.8817C1216.25 30.8817 1216.67 30.619 1216.87 30.2119L1218.23 27.4016L1219.91 29.9335L1217.51 40.5443H1214.08ZM1223.59 42.8977C1224.15 42.8977 1224.61 43.3468 1224.61 43.8984V45.2536C1224.61 45.8052 1224.15 46.2543 1223.59 46.2543L1208 46.2517C1207.43 46.2517 1206.98 45.8026 1206.98 45.251V43.8957C1206.98 43.3442 1207.43 42.895 1208 42.895L1223.59 42.8977ZM1215.79 56.9914C1214.05 56.9914 1212.57 55.8646 1212.06 54.315H1219.52C1219.02 55.8646 1217.54 56.9914 1215.79 56.9914ZM1224.61 50.961C1224.61 51.5125 1224.15 51.9617 1223.59 51.9617L1208 51.959C1207.44 51.959 1206.98 51.5099 1206.98 50.9583V49.6057C1206.98 49.0542 1207.44 48.605 1208 48.605H1223.59C1224.15 48.605 1224.61 49.0541 1224.61 49.6057V50.961ZM1227.84 33.1295C1227.34 33.4972 1223.7 36.3049 1223.07 40.5438H1219.96L1222.28 30.29L1227.62 24.9556C1228.08 24.4933 1228.07 23.7474 1227.6 23.2904C1227.13 22.8334 1226.37 22.8413 1225.91 23.3035L1221.38 27.8368L1219.07 24.3567C1218.84 23.9995 1218.43 23.7999 1217.99 23.8236C1217.56 23.8524 1217.18 24.1072 1216.99 24.4907L1215.79 26.9675L1214.6 24.4933C1214.41 24.1098 1214.03 23.8524 1213.59 23.8262C1213.16 23.7999 1212.75 24.0022 1212.51 24.3594L1210.21 27.8395L1205.68 23.3061C1205.22 22.8439 1204.46 22.836 1203.98 23.293C1203.51 23.7474 1203.51 24.4933 1203.97 24.9582L1209.31 30.2926L1211.63 40.5464H1208.51C1207.88 36.3073 1204.25 33.4972 1203.75 33.1321C1199.99 29.7859 1197.83 25.0138 1197.83 20.0287C1197.83 10.29 1205.89 2.36532 1215.79 2.36532C1225.7 2.36532 1233.76 10.2893 1233.76 20.0287C1233.76 25.0138 1231.6 29.781 1227.84 33.1295Z" fill="#436C8F" fill-opacity="0.41"/>
<path d="M532.686 0.00721159C521.463 0.00721159 512.33 8.98685 512.33 20.024C512.33 25.705 514.801 31.1418 519.106 34.9347C519.152 34.9767 519.202 35.0108 519.253 35.045C519.71 35.389 522.68 37.7502 523.073 41.0701C522.119 41.6663 521.481 42.7064 521.481 43.8962V45.2514C521.481 46.0867 521.804 46.8405 522.32 47.4288C521.804 48.0171 521.481 48.7709 521.481 49.6062V50.9614C521.481 52.8105 523.011 54.3154 524.892 54.3154H526.495C527.055 57.1783 529.62 59.3452 532.691 59.3452C535.763 59.3452 538.325 57.1757 538.888 54.3154H540.491C542.371 54.3154 543.902 52.8105 543.902 50.9614L543.894 49.6062C543.894 48.7709 543.571 48.0171 543.055 47.4288C543.571 46.8405 543.894 46.0867 543.894 45.2514V43.8962C543.894 42.7064 543.255 41.6663 542.302 41.0701C542.676 37.9525 545.344 35.6569 546.023 35.1211C546.084 35.0843 546.146 35.0423 546.202 34.9924C550.55 31.1945 553.042 25.7391 553.042 20.0239C553.042 8.98742 543.911 0.00721159 532.686 0.00721159ZM530.971 40.5443L528.573 29.9335L530.248 27.4016L531.607 30.2119C531.805 30.6217 532.227 30.8817 532.686 30.8817C533.148 30.8817 533.568 30.619 533.765 30.2119L535.125 27.4016L536.8 29.9335L534.401 40.5443H530.971ZM540.483 42.8977C541.044 42.8977 541.501 43.3468 541.501 43.8984V45.2536C541.501 45.8052 541.044 46.2543 540.483 46.2543L524.889 46.2517C524.328 46.2517 523.871 45.8026 523.871 45.251V43.8957C523.871 43.3442 524.328 42.895 524.889 42.895L540.483 42.8977ZM532.686 56.9914C530.942 56.9914 529.462 55.8646 528.955 54.315H536.418C535.91 55.8646 534.431 56.9914 532.686 56.9914ZM541.501 50.961C541.501 51.5125 541.044 51.9617 540.483 51.9617L524.89 51.959C524.329 51.959 523.872 51.5099 523.872 50.9583V49.6057C523.872 49.0542 524.329 48.605 524.89 48.605H540.483C541.044 48.605 541.501 49.0541 541.501 49.6057V50.961ZM544.73 33.1295C544.231 33.4972 540.598 36.3049 539.965 40.5438H536.853L539.172 30.29L544.509 24.9556C544.973 24.4933 544.965 23.7474 544.495 23.2904C544.025 22.8334 543.267 22.8413 542.802 23.3035L538.269 27.8368L535.967 24.3567C535.732 23.9995 535.323 23.7999 534.885 23.8236C534.452 23.8524 534.07 24.1072 533.883 24.4907L532.687 26.9675L531.49 24.4933C531.303 24.1098 530.921 23.8524 530.488 23.8262C530.058 23.7999 529.642 24.0022 529.407 24.3594L527.104 27.8395L522.571 23.3061C522.109 22.8439 521.351 22.836 520.878 23.293C520.408 23.7474 520.4 24.4933 520.865 24.9582L526.201 30.2926L528.52 40.5464H525.408C524.775 36.3073 521.142 33.4972 520.643 33.1321C516.879 29.7859 514.724 25.0138 514.724 20.0287C514.724 10.29 522.782 2.36532 532.687 2.36532C542.592 2.36532 550.65 10.2893 550.65 20.0287C550.65 25.0138 548.494 29.781 544.73 33.1295Z" fill="#436C8F" fill-opacity="0.41"/>
<path d="M874.239 0.00721159C863.016 0.00721159 853.883 8.98685 853.883 20.024C853.883 25.705 856.354 31.1418 860.66 34.9347C860.705 34.9767 860.756 35.0108 860.806 35.045C861.263 35.389 864.233 37.7502 864.626 41.0701C863.673 41.6663 863.034 42.7064 863.034 43.8962V45.2514C863.034 46.0867 863.357 46.8405 863.873 47.4288C863.357 48.0171 863.034 48.7709 863.034 49.6062V50.9614C863.034 52.8105 864.565 54.3154 866.445 54.3154H868.048C868.609 57.1783 871.173 59.3452 874.245 59.3452C877.316 59.3452 879.878 57.1757 880.441 54.3154H882.044C883.925 54.3154 885.455 52.8105 885.455 50.9614L885.447 49.6062C885.447 48.7709 885.124 48.0171 884.608 47.4288C885.124 46.8405 885.447 46.0867 885.447 45.2514V43.8962C885.447 42.7064 884.809 41.6663 883.855 41.0701C884.229 37.9525 886.897 35.6569 887.576 35.1211C887.637 35.0843 887.699 35.0423 887.755 34.9924C892.103 31.1945 894.595 25.7391 894.595 20.0239C894.595 8.98742 885.464 0.00721159 874.239 0.00721159ZM872.525 40.5443L870.126 29.9335L871.801 27.4016L873.16 30.2119C873.358 30.6217 873.78 30.8817 874.239 30.8817C874.702 30.8817 875.121 30.619 875.319 30.2119L876.678 27.4016L878.353 29.9335L875.954 40.5443H872.525ZM882.036 42.8977C882.597 42.8977 883.054 43.3468 883.054 43.8984V45.2536C883.054 45.8052 882.597 46.2543 882.036 46.2543L866.442 46.2517C865.881 46.2517 865.425 45.8026 865.425 45.251V43.8957C865.425 43.3442 865.881 42.895 866.442 42.895L882.036 42.8977ZM874.24 56.9914C872.495 56.9914 871.016 55.8646 870.508 54.315H877.971C877.464 55.8646 875.984 56.9914 874.24 56.9914ZM883.054 50.961C883.054 51.5125 882.598 51.9617 882.037 51.9617L866.443 51.959C865.882 51.959 865.425 51.5099 865.425 50.9583V49.6057C865.425 49.0542 865.882 48.605 866.443 48.605H882.037C882.598 48.605 883.054 49.0541 883.054 49.6057V50.961ZM886.284 33.1295C885.784 33.4972 882.152 36.3049 881.519 40.5438H878.407L880.725 30.29L886.062 24.9556C886.527 24.4933 886.519 23.7474 886.049 23.2904C885.578 22.8334 884.82 22.8413 884.355 23.3035L879.822 27.8368L877.52 24.3567C877.285 23.9995 876.876 23.7999 876.438 23.8236C876.005 23.8524 875.623 24.1072 875.437 24.4907L874.24 26.9675L873.043 24.4933C872.856 24.1098 872.474 23.8524 872.042 23.8262C871.612 23.7999 871.195 24.0022 870.96 24.3594L868.657 27.8395L864.125 23.3061C863.663 22.8439 862.904 22.836 862.431 23.293C861.961 23.7474 861.953 24.4933 862.418 24.9582L867.755 30.2926L870.073 40.5464H866.961C866.328 36.3073 862.696 33.4972 862.196 33.1321C858.433 29.7859 856.277 25.0138 856.277 20.0287C856.277 10.29 864.336 2.36532 874.24 2.36532C884.145 2.36532 892.203 10.2893 892.203 20.0287C892.203 25.0138 890.047 29.781 886.284 33.1295Z" fill="#436C8F" fill-opacity="0.41"/>
<path d="M191.133 0.00721159C179.909 0.00721159 170.777 8.98685 170.777 20.024C170.777 25.705 173.247 31.1418 177.553 34.9347C177.599 34.9767 177.649 35.0108 177.7 35.045C178.157 35.389 181.127 37.7502 181.52 41.0701C180.566 41.6663 179.928 42.7064 179.928 43.8962V45.2514C179.928 46.0867 180.251 46.8405 180.766 47.4288C180.251 48.0171 179.928 48.7709 179.928 49.6062V50.9614C179.928 52.8105 181.458 54.3154 183.339 54.3154H184.941C185.502 57.1783 188.066 59.3452 191.138 59.3452C194.21 59.3452 196.771 57.1757 197.335 54.3154H198.938C200.818 54.3154 202.349 52.8105 202.349 50.9614L202.341 49.6062C202.341 48.7709 202.017 48.0171 201.502 47.4288C202.017 46.8405 202.341 46.0867 202.341 45.2514V43.8962C202.341 42.7064 201.702 41.6663 200.749 41.0701C201.123 37.9525 203.791 35.6569 204.469 35.1211C204.531 35.0843 204.592 35.0423 204.648 34.9924C208.997 31.1945 211.489 25.7391 211.489 20.0239C211.489 8.98742 202.357 0.00721159 191.133 0.00721159ZM189.418 40.5443L187.02 29.9335L188.694 27.4016L190.054 30.2119C190.252 30.6217 190.674 30.8817 191.133 30.8817C191.595 30.8817 192.015 30.619 192.212 30.2119L193.572 27.4016L195.246 29.9335L192.848 40.5443H189.418ZM198.93 42.8977C199.491 42.8977 199.947 43.3468 199.947 43.8984V45.2536C199.947 45.8052 199.491 46.2543 198.93 46.2543L183.336 46.2517C182.775 46.2517 182.318 45.8026 182.318 45.251V43.8957C182.318 43.3442 182.775 42.895 183.336 42.895L198.93 42.8977ZM191.133 56.9914C189.389 56.9914 187.909 55.8646 187.402 54.315H194.865C194.357 55.8646 192.877 56.9914 191.133 56.9914ZM199.948 50.961C199.948 51.5125 199.491 51.9617 198.93 51.9617L183.336 51.959C182.775 51.959 182.319 51.5099 182.319 50.9583V49.6057C182.319 49.0542 182.775 48.605 183.336 48.605H198.93C199.491 48.605 199.948 49.0541 199.948 49.6057V50.961ZM203.177 33.1295C202.678 33.4972 199.045 36.3049 198.412 40.5438H195.3L197.619 30.29L202.956 24.9556C203.42 24.4933 203.412 23.7474 202.942 23.2904C202.472 22.8334 201.713 22.8413 201.249 23.3035L196.716 27.8368L194.413 24.3567C194.178 23.9995 193.77 23.7999 193.332 23.8236C192.899 23.8524 192.517 24.1072 192.33 24.4907L191.133 26.9675L189.937 24.4933C189.75 24.1098 189.368 23.8524 188.935 23.8262C188.505 23.7999 188.088 24.0022 187.853 24.3594L185.551 27.8395L181.018 23.3061C180.556 22.8439 179.797 22.836 179.325 23.293C178.855 23.7474 178.847 24.4933 179.311 24.9582L184.648 30.2926L186.967 40.5464H183.855C183.222 36.3073 179.589 33.4972 179.09 33.1321C175.326 29.7859 173.171 25.0138 173.171 20.0287C173.171 10.29 181.229 2.36532 191.134 2.36532C201.038 2.36532 209.097 10.2893 209.097 20.0287C209.097 25.0138 206.941 29.781 203.177 33.1295Z" fill="#436C8F" fill-opacity="0.41"/>
<path d="M1045.02 0.00721159C1033.79 0.00721159 1024.66 8.98685 1024.66 20.024C1024.66 25.705 1027.13 31.1418 1031.44 34.9347C1031.48 34.9767 1031.53 35.0108 1031.58 35.045C1032.04 35.389 1035.01 37.7502 1035.4 41.0701C1034.45 41.6663 1033.81 42.7064 1033.81 43.8962V45.2514C1033.81 46.0867 1034.13 46.8405 1034.65 47.4288C1034.13 48.0171 1033.81 48.7709 1033.81 49.6062V50.9614C1033.81 52.8105 1035.34 54.3154 1037.22 54.3154H1038.82C1039.39 57.1783 1041.95 59.3452 1045.02 59.3452C1048.09 59.3452 1050.65 57.1757 1051.22 54.3154H1052.82C1054.7 54.3154 1056.23 52.8105 1056.23 50.9614L1056.22 49.6062C1056.22 48.7709 1055.9 48.0171 1055.39 47.4288C1055.9 46.8405 1056.22 46.0867 1056.22 45.2514V43.8962C1056.22 42.7064 1055.59 41.6663 1054.63 41.0701C1055.01 37.9525 1057.67 35.6569 1058.35 35.1211C1058.41 35.0843 1058.48 35.0423 1058.53 34.9924C1062.88 31.1945 1065.37 25.7391 1065.37 20.0239C1065.37 8.98742 1056.24 0.00721159 1045.02 0.00721159ZM1043.3 40.5443L1040.9 29.9335L1042.58 27.4016L1043.94 30.2119C1044.13 30.6217 1044.56 30.8817 1045.02 30.8817C1045.48 30.8817 1045.9 30.619 1046.1 30.2119L1047.45 27.4016L1049.13 29.9335L1046.73 40.5443H1043.3ZM1052.81 42.8977C1053.37 42.8977 1053.83 43.3468 1053.83 43.8984V45.2536C1053.83 45.8052 1053.37 46.2543 1052.81 46.2543L1037.22 46.2517C1036.66 46.2517 1036.2 45.8026 1036.2 45.251V43.8957C1036.2 43.3442 1036.66 42.895 1037.22 42.895L1052.81 42.8977ZM1045.02 56.9914C1043.27 56.9914 1041.79 55.8646 1041.28 54.315H1048.75C1048.24 55.8646 1046.76 56.9914 1045.02 56.9914ZM1053.83 50.961C1053.83 51.5125 1053.37 51.9617 1052.81 51.9617L1037.22 51.959C1036.66 51.959 1036.2 51.5099 1036.2 50.9583V49.6057C1036.2 49.0542 1036.66 48.605 1037.22 48.605H1052.81C1053.37 48.605 1053.83 49.0541 1053.83 49.6057V50.961ZM1057.06 33.1295C1056.56 33.4972 1052.93 36.3049 1052.3 40.5438H1049.18L1051.5 30.29L1056.84 24.9556C1057.3 24.4933 1057.3 23.7474 1056.83 23.2904C1056.36 22.8334 1055.6 22.8413 1055.13 23.3035L1050.6 27.8368L1048.3 24.3567C1048.06 23.9995 1047.65 23.7999 1047.21 23.8236C1046.78 23.8524 1046.4 24.1072 1046.21 24.4907L1045.02 26.9675L1043.82 24.4933C1043.63 24.1098 1043.25 23.8524 1042.82 23.8262C1042.39 23.7999 1041.97 24.0022 1041.74 24.3594L1039.43 27.8395L1034.9 23.3061C1034.44 22.8439 1033.68 22.836 1033.21 23.293C1032.74 23.7474 1032.73 24.4933 1033.19 24.9582L1038.53 30.2926L1040.85 40.5464H1037.74C1037.1 36.3073 1033.47 33.4972 1032.97 33.1321C1029.21 29.7859 1027.05 25.0138 1027.05 20.0287C1027.05 10.29 1035.11 2.36532 1045.02 2.36532C1054.92 2.36532 1062.98 10.2893 1062.98 20.0287C1062.98 25.0138 1060.82 29.781 1057.06 33.1295Z" fill="#436C8F" fill-opacity="0.41"/>
<path d="M361.91 0.00721159C350.686 0.00721159 341.553 8.98685 341.553 20.024C341.553 25.705 344.024 31.1418 348.33 34.9347C348.375 34.9767 348.426 35.0108 348.477 35.045C348.934 35.389 351.904 37.7502 352.296 41.0701C351.343 41.6663 350.704 42.7064 350.704 43.8962V45.2514C350.704 46.0867 351.028 46.8405 351.543 47.4288C351.028 48.0171 350.704 48.7709 350.704 49.6062V50.9614C350.704 52.8105 352.235 54.3154 354.115 54.3154H355.718C356.279 57.1783 358.843 59.3452 361.915 59.3452C364.987 59.3452 367.548 57.1757 368.112 54.3154H369.714C371.595 54.3154 373.125 52.8105 373.125 50.9614L373.117 49.6062C373.117 48.7709 372.794 48.0171 372.279 47.4288C372.794 46.8405 373.117 46.0867 373.117 45.2514V43.8962C373.117 42.7064 372.479 41.6663 371.525 41.0701C371.899 37.9525 374.568 35.6569 375.246 35.1211C375.308 35.0843 375.369 35.0423 375.425 34.9924C379.774 31.1945 382.266 25.7391 382.266 20.0239C382.266 8.98742 373.134 0.00721159 361.91 0.00721159ZM360.195 40.5443L357.796 29.9335L359.471 27.4016L360.831 30.2119C361.028 30.6217 361.45 30.8817 361.91 30.8817C362.372 30.8817 362.791 30.619 362.989 30.2119L364.348 27.4016L366.023 29.9335L363.625 40.5443H360.195ZM369.706 42.8977C370.267 42.8977 370.724 43.3468 370.724 43.8984V45.2536C370.724 45.8052 370.267 46.2543 369.706 46.2543L354.113 46.2517C353.552 46.2517 353.095 45.8026 353.095 45.251V43.8957C353.095 43.3442 353.552 42.895 354.113 42.895L369.706 42.8977ZM361.91 56.9914C360.166 56.9914 358.686 55.8646 358.178 54.315H365.641C365.134 55.8646 363.654 56.9914 361.91 56.9914ZM370.725 50.961C370.725 51.5125 370.268 51.9617 369.707 51.9617L354.113 51.959C353.552 51.959 353.095 51.5099 353.095 50.9583V49.6057C353.095 49.0542 353.552 48.605 354.113 48.605H369.707C370.268 48.605 370.725 49.0541 370.725 49.6057V50.961ZM373.954 33.1295C373.455 33.4972 369.822 36.3049 369.189 40.5438H366.077L368.395 30.29L373.732 24.9556C374.197 24.4933 374.189 23.7474 373.719 23.2904C373.249 22.8334 372.49 22.8413 372.025 23.3035L367.493 27.8368L365.19 24.3567C364.955 23.9995 364.546 23.7999 364.108 23.8236C363.676 23.8524 363.294 24.1072 363.107 24.4907L361.91 26.9675L360.714 24.4933C360.527 24.1098 360.145 23.8524 359.712 23.8262C359.282 23.7999 358.865 24.0022 358.63 24.3594L356.328 27.8395L351.795 23.3061C351.333 22.8439 350.574 22.836 350.101 23.293C349.631 23.7474 349.623 24.4933 350.088 24.9582L355.425 30.2926L357.743 40.5464H354.632C353.999 36.3073 350.366 33.4972 349.866 33.1321C346.103 29.7859 343.947 25.0138 343.947 20.0287C343.947 10.29 352.006 2.36532 361.91 2.36532C371.815 2.36532 379.874 10.2893 379.874 20.0287C379.874 25.0138 377.718 29.781 373.954 33.1295Z" fill="#436C8F" fill-opacity="0.41"/>
<path d="M703.463 0.00721159C692.239 0.00721159 683.106 8.98685 683.106 20.024C683.106 25.705 685.577 31.1418 689.883 34.9347C689.928 34.9767 689.979 35.0108 690.03 35.045C690.487 35.389 693.457 37.7502 693.849 41.0701C692.896 41.6663 692.258 42.7064 692.258 43.8962V45.2514C692.258 46.0867 692.581 46.8405 693.096 47.4288C692.581 48.0171 692.258 48.7709 692.258 49.6062V50.9614C692.258 52.8105 693.788 54.3154 695.668 54.3154H697.271C697.832 57.1783 700.396 59.3452 703.468 59.3452C706.54 59.3452 709.101 57.1757 709.665 54.3154H711.267C713.148 54.3154 714.678 52.8105 714.678 50.9614L714.67 49.6062C714.67 48.7709 714.347 48.0171 713.832 47.4288C714.347 46.8405 714.67 46.0867 714.67 45.2514V43.8962C714.67 42.7064 714.032 41.6663 713.078 41.0701C713.452 37.9525 716.121 35.6569 716.799 35.1211C716.861 35.0843 716.922 35.0423 716.978 34.9924C721.327 31.1945 723.819 25.7391 723.819 20.0239C723.819 8.98742 714.687 0.00721159 703.463 0.00721159ZM701.748 40.5443L699.349 29.9335L701.024 27.4016L702.384 30.2119C702.581 30.6217 703.003 30.8817 703.463 30.8817C703.925 30.8817 704.344 30.619 704.542 30.2119L705.902 27.4016L707.576 29.9335L705.178 40.5443H701.748ZM711.26 42.8977C711.821 42.8977 712.277 43.3468 712.277 43.8984V45.2536C712.277 45.8052 711.821 46.2543 711.26 46.2543L695.666 46.2517C695.105 46.2517 694.648 45.8026 694.648 45.251V43.8957C694.648 43.3442 695.105 42.895 695.666 42.895L711.26 42.8977ZM703.463 56.9914C701.719 56.9914 700.239 55.8646 699.732 54.315H707.194C706.687 55.8646 705.207 56.9914 703.463 56.9914ZM712.278 50.961C712.278 51.5125 711.821 51.9617 711.26 51.9617L695.666 51.959C695.105 51.959 694.649 51.5099 694.649 50.9583V49.6057C694.649 49.0542 695.105 48.605 695.666 48.605H711.26C711.821 48.605 712.278 49.0541 712.278 49.6057V50.961ZM715.507 33.1295C715.008 33.4972 711.375 36.3049 710.742 40.5438H707.63L709.949 30.29L715.285 24.9556C715.75 24.4933 715.742 23.7474 715.272 23.2904C714.802 22.8334 714.043 22.8413 713.579 23.3035L709.046 27.8368L706.743 24.3567C706.508 23.9995 706.1 23.7999 705.662 23.8236C705.229 23.8524 704.847 24.1072 704.66 24.4907L703.463 26.9675L702.267 24.4933C702.08 24.1098 701.698 23.8524 701.265 23.8262C700.835 23.7999 700.418 24.0022 700.183 24.3594L697.881 27.8395L693.348 23.3061C692.886 22.8439 692.127 22.836 691.655 23.293C691.184 23.7474 691.176 24.4933 691.641 24.9582L696.978 30.2926L699.296 40.5464H696.185C695.552 36.3073 691.919 33.4972 691.419 33.1321C687.656 29.7859 685.5 25.0138 685.5 20.0287C685.5 10.29 693.559 2.36532 703.464 2.36532C713.368 2.36532 721.427 10.2893 721.427 20.0287C721.427 25.0138 719.271 29.781 715.507 33.1295Z" fill="#436C8F" fill-opacity="0.41"/>
<path d="M20.3564 0.00721159C9.1327 0.00721159 0 8.98685 0 20.024C0 25.705 2.47074 31.1418 6.7765 34.9347C6.82191 34.9767 6.87265 35.0108 6.92341 35.045C7.38016 35.389 10.3504 37.7502 10.743 41.0701C9.78944 41.6663 9.15106 42.7064 9.15106 43.8962V45.2514C9.15106 46.0867 9.47426 46.8405 9.98979 47.4288C9.47428 48.0171 9.15106 48.7709 9.15106 49.6062V50.9614C9.15106 52.8105 10.6816 54.3154 12.562 54.3154H14.1647C14.7256 57.1783 17.2898 59.3452 20.3615 59.3452C23.4333 59.3452 25.9948 57.1757 26.5584 54.3154H28.161C30.0415 54.3154 31.572 52.8105 31.572 50.9614L31.564 49.6062C31.564 48.7709 31.2408 48.0171 30.7252 47.4288C31.2408 46.8405 31.564 46.0867 31.564 45.2514V43.8962C31.564 42.7064 30.9256 41.6663 29.972 41.0701C30.346 37.9525 33.0144 35.6569 33.6928 35.1211C33.7543 35.0843 33.8157 35.0423 33.8718 34.9924C38.2203 31.1945 40.7124 25.7391 40.7124 20.0239C40.7124 8.98742 31.5809 0.00721159 20.3564 0.00721159ZM18.6416 40.5443L16.243 29.9335L17.9178 27.4016L19.2774 30.2119C19.475 30.6217 19.897 30.8817 20.3564 30.8817C20.8185 30.8817 21.2379 30.619 21.4355 30.2119L22.7951 27.4016L24.4698 29.9335L22.0713 40.5443H18.6416ZM28.1532 42.8977C28.7141 42.8977 29.1708 43.3468 29.1708 43.8984V45.2536C29.1708 45.8052 28.7141 46.2543 28.1532 46.2543L12.5593 46.2517C11.9984 46.2517 11.5416 45.8026 11.5416 45.251V43.8957C11.5416 43.3442 11.9984 42.895 12.5593 42.895L28.1532 42.8977ZM20.3566 56.9914C18.6124 56.9914 17.1326 55.8646 16.6251 54.315H24.088C23.5805 55.8646 22.1008 56.9914 20.3566 56.9914ZM29.1713 50.961C29.1713 51.5125 28.7146 51.9617 28.1536 51.9617L12.5598 51.959C11.9989 51.959 11.5421 51.5099 11.5421 50.9583V49.6057C11.5421 49.0542 11.9989 48.605 12.5598 48.605H28.1536C28.7146 48.605 29.1713 49.0541 29.1713 49.6057V50.961ZM32.4007 33.1295C31.9012 33.4972 28.2685 36.3049 27.6355 40.5438H24.5237L26.8421 30.29L32.1789 24.9556C32.6437 24.4933 32.6357 23.7474 32.1655 23.2904C31.6954 22.8334 30.9368 22.8413 30.4721 23.3035L25.9393 27.8368L23.6368 24.3567C23.4018 23.9995 22.9931 23.7999 22.5551 23.8236C22.1224 23.8524 21.7404 24.1072 21.5535 24.4907L20.3568 26.9675L19.1602 24.4933C18.9732 24.1098 18.5913 23.8524 18.1586 23.8262C17.7285 23.7999 17.3118 24.0022 17.0768 24.3594L14.7744 27.8395L10.2416 23.3061C9.77949 22.8439 9.02088 22.836 8.54811 23.293C8.078 23.7474 8.06999 24.4933 8.53475 24.9582L13.8715 30.2926L16.19 40.5464H13.0782C12.4452 36.3073 8.81251 33.4972 8.313 33.1321C4.54949 29.7859 2.39398 25.0138 2.39398 20.0287C2.39398 10.29 10.4524 2.36532 20.3571 2.36532C30.2619 2.36532 38.3203 10.2893 38.3203 20.0287C38.3203 25.0138 36.1642 29.781 32.4007 33.1295Z" fill="#436C8F" fill-opacity="0.41"/>
<path d="M1329.64 0.00721159C1318.42 0.00721159 1309.29 8.98685 1309.29 20.024C1309.29 25.705 1311.76 31.1418 1316.06 34.9347C1316.11 34.9767 1316.16 35.0108 1316.21 35.045C1316.67 35.389 1319.64 37.7502 1320.03 41.0701C1319.08 41.6663 1318.44 42.7064 1318.44 43.8962V45.2514C1318.44 46.0867 1318.76 46.8405 1319.28 47.4288C1318.76 48.0171 1318.44 48.7709 1318.44 49.6062V50.9614C1318.44 52.8105 1319.97 54.3154 1321.85 54.3154H1323.45C1324.01 57.1783 1326.58 59.3452 1329.65 59.3452C1332.72 59.3452 1335.28 57.1757 1335.85 54.3154H1337.45C1339.33 54.3154 1340.86 52.8105 1340.86 50.9614L1340.85 49.6062C1340.85 48.7709 1340.53 48.0171 1340.01 47.4288C1340.53 46.8405 1340.85 46.0867 1340.85 45.2514V43.8962C1340.85 42.7064 1340.21 41.6663 1339.26 41.0701C1339.63 37.9525 1342.3 35.6569 1342.98 35.1211C1343.04 35.0843 1343.1 35.0423 1343.16 34.9924C1347.51 31.1945 1350 25.7391 1350 20.0239C1350 8.98742 1340.87 0.00721159 1329.64 0.00721159ZM1327.93 40.5443L1325.53 29.9335L1327.21 27.4016L1328.56 30.2119C1328.76 30.6217 1329.18 30.8817 1329.64 30.8817C1330.11 30.8817 1330.53 30.619 1330.72 30.2119L1332.08 27.4016L1333.76 29.9335L1331.36 40.5443H1327.93ZM1337.44 42.8977C1338 42.8977 1338.46 43.3468 1338.46 43.8984V45.2536C1338.46 45.8052 1338 46.2543 1337.44 46.2543L1321.85 46.2517C1321.29 46.2517 1320.83 45.8026 1320.83 45.251V43.8957C1320.83 43.3442 1321.29 42.895 1321.85 42.895L1337.44 42.8977ZM1329.64 56.9914C1327.9 56.9914 1326.42 55.8646 1325.91 54.315H1333.38C1332.87 55.8646 1331.39 56.9914 1329.64 56.9914ZM1338.46 50.961C1338.46 51.5125 1338 51.9617 1337.44 51.9617L1321.85 51.959C1321.29 51.959 1320.83 51.5099 1320.83 50.9583V49.6057C1320.83 49.0542 1321.29 48.605 1321.85 48.605H1337.44C1338 48.605 1338.46 49.0541 1338.46 49.6057V50.961ZM1341.69 33.1295C1341.19 33.4972 1337.56 36.3049 1336.92 40.5438H1333.81L1336.13 30.29L1341.47 24.9556C1341.93 24.4933 1341.92 23.7474 1341.45 23.2904C1340.98 22.8334 1340.22 22.8413 1339.76 23.3035L1335.23 27.8368L1332.92 24.3567C1332.69 23.9995 1332.28 23.7999 1331.84 23.8236C1331.41 23.8524 1331.03 24.1072 1330.84 24.4907L1329.64 26.9675L1328.45 24.4933C1328.26 24.1098 1327.88 23.8524 1327.45 23.8262C1327.02 23.7999 1326.6 24.0022 1326.36 24.3594L1324.06 27.8395L1319.53 23.3061C1319.07 22.8439 1318.31 22.836 1317.84 23.293C1317.37 23.7474 1317.36 24.4933 1317.82 24.9582L1323.16 30.2926L1325.48 40.5464H1322.37C1321.73 36.3073 1318.1 33.4972 1317.6 33.1321C1313.84 29.7859 1311.68 25.0138 1311.68 20.0287C1311.68 10.29 1319.74 2.36532 1329.64 2.36532C1339.55 2.36532 1347.61 10.2893 1347.61 20.0287C1347.61 25.0138 1345.45 29.781 1341.69 33.1295Z" fill="#436C8F" fill-opacity="0.41"/>
<path d="M646.537 0.00721159C635.314 0.00721159 626.181 8.98685 626.181 20.024C626.181 25.705 628.652 31.1418 632.957 34.9347C633.003 34.9767 633.054 35.0108 633.104 35.045C633.561 35.389 636.531 37.7502 636.924 41.0701C635.97 41.6663 635.332 42.7064 635.332 43.8962V45.2514C635.332 46.0867 635.655 46.8405 636.171 47.4288C635.655 48.0171 635.332 48.7709 635.332 49.6062V50.9614C635.332 52.8105 636.862 54.3154 638.743 54.3154H640.346C640.907 57.1783 643.471 59.3452 646.542 59.3452C649.614 59.3452 652.176 57.1757 652.739 54.3154H654.342C656.222 54.3154 657.753 52.8105 657.753 50.9614L657.745 49.6062C657.745 48.7709 657.422 48.0171 656.906 47.4288C657.422 46.8405 657.745 46.0867 657.745 45.2514V43.8962C657.745 42.7064 657.107 41.6663 656.153 41.0701C656.527 37.9525 659.195 35.6569 659.874 35.1211C659.935 35.0843 659.997 35.0423 660.053 34.9924C664.401 31.1945 666.893 25.7391 666.893 20.0239C666.893 8.98742 657.762 0.00721159 646.537 0.00721159ZM644.823 40.5443L642.424 29.9335L644.099 27.4016L645.458 30.2119C645.656 30.6217 646.078 30.8817 646.537 30.8817C646.999 30.8817 647.419 30.619 647.616 30.2119L648.976 27.4016L650.651 29.9335L648.252 40.5443H644.823ZM654.334 42.8977C654.895 42.8977 655.352 43.3468 655.352 43.8984V45.2536C655.352 45.8052 654.895 46.2543 654.334 46.2543L638.74 46.2517C638.179 46.2517 637.723 45.8026 637.723 45.251V43.8957C637.723 43.3442 638.179 42.895 638.74 42.895L654.334 42.8977ZM646.537 56.9914C644.793 56.9914 643.314 55.8646 642.806 54.315H650.269C649.761 55.8646 648.282 56.9914 646.537 56.9914ZM655.352 50.961C655.352 51.5125 654.895 51.9617 654.335 51.9617L638.741 51.959C638.18 51.959 637.723 51.5099 637.723 50.9583V49.6057C637.723 49.0542 638.18 48.605 638.741 48.605H654.335C654.895 48.605 655.352 49.0541 655.352 49.6057V50.961ZM658.582 33.1295C658.082 33.4972 654.449 36.3049 653.816 40.5438H650.705L653.023 30.29L658.36 24.9556C658.825 24.4933 658.817 23.7474 658.346 23.2904C657.876 22.8334 657.118 22.8413 656.653 23.3035L652.12 27.8368L649.818 24.3567C649.583 23.9995 649.174 23.7999 648.736 23.8236C648.303 23.8524 647.921 24.1072 647.734 24.4907L646.538 26.9675L645.341 24.4933C645.154 24.1098 644.772 23.8524 644.339 23.8262C643.909 23.7999 643.493 24.0022 643.258 24.3594L640.955 27.8395L636.422 23.3061C635.96 22.8439 635.202 22.836 634.729 23.293C634.259 23.7474 634.251 24.4933 634.716 24.9582L640.052 30.2926L642.371 40.5464H639.259C638.626 36.3073 634.993 33.4972 634.494 33.1321C630.73 29.7859 628.575 25.0138 628.575 20.0287C628.575 10.29 636.633 2.36532 646.538 2.36532C656.443 2.36532 664.501 10.2893 664.501 20.0287C664.501 25.0138 662.345 29.781 658.582 33.1295Z" fill="#436C8F" fill-opacity="0.41"/>
<path d="M988.091 0.00721159C976.867 0.00721159 967.734 8.98685 967.734 20.024C967.734 25.705 970.205 31.1418 974.511 34.9347C974.556 34.9767 974.607 35.0108 974.658 35.045C975.114 35.389 978.085 37.7502 978.477 41.0701C977.524 41.6663 976.885 42.7064 976.885 43.8962V45.2514C976.885 46.0867 977.209 46.8405 977.724 47.4288C977.209 48.0171 976.885 48.7709 976.885 49.6062V50.9614C976.885 52.8105 978.416 54.3154 980.296 54.3154H981.899C982.46 57.1783 985.024 59.3452 988.096 59.3452C991.168 59.3452 993.729 57.1757 994.293 54.3154H995.895C997.776 54.3154 999.306 52.8105 999.306 50.9614L999.298 49.6062C999.298 48.7709 998.975 48.0171 998.459 47.4288C998.975 46.8405 999.298 46.0867 999.298 45.2514V43.8962C999.298 42.7064 998.66 41.6663 997.706 41.0701C998.08 37.9525 1000.75 35.6569 1001.43 35.1211C1001.49 35.0843 1001.55 35.0423 1001.61 34.9924C1005.95 31.1945 1008.45 25.7391 1008.45 20.0239C1008.45 8.98742 999.315 0.00721159 988.091 0.00721159ZM986.376 40.5443L983.977 29.9335L985.652 27.4016L987.012 30.2119C987.209 30.6217 987.631 30.8817 988.091 30.8817C988.553 30.8817 988.972 30.619 989.17 30.2119L990.529 27.4016L992.204 29.9335L989.806 40.5443H986.376ZM995.887 42.8977C996.448 42.8977 996.905 43.3468 996.905 43.8984V45.2536C996.905 45.8052 996.448 46.2543 995.887 46.2543L980.294 46.2517C979.733 46.2517 979.276 45.8026 979.276 45.251V43.8957C979.276 43.3442 979.733 42.895 980.294 42.895L995.887 42.8977ZM988.091 56.9914C986.347 56.9914 984.867 55.8646 984.359 54.315H991.822C991.315 55.8646 989.835 56.9914 988.091 56.9914ZM996.906 50.961C996.906 51.5125 996.449 51.9617 995.888 51.9617L980.294 51.959C979.733 51.959 979.276 51.5099 979.276 50.9583V49.6057C979.276 49.0542 979.733 48.605 980.294 48.605H995.888C996.449 48.605 996.906 49.0541 996.906 49.6057V50.961ZM1000.13 33.1295C999.635 33.4972 996.003 36.3049 995.37 40.5438H992.258L994.576 30.29L999.913 24.9556C1000.38 24.4933 1000.37 23.7474 999.9 23.2904C999.43 22.8334 998.671 22.8413 998.206 23.3035L993.674 27.8368L991.371 24.3567C991.136 23.9995 990.727 23.7999 990.289 23.8236C989.857 23.8524 989.475 24.1072 989.288 24.4907L988.091 26.9675L986.894 24.4933C986.707 24.1098 986.326 23.8524 985.893 23.8262C985.463 23.7999 985.046 24.0022 984.811 24.3594L982.509 27.8395L977.976 23.3061C977.514 22.8439 976.755 22.836 976.282 23.293C975.812 23.7474 975.804 24.4933 976.269 24.9582L981.606 30.2926L983.924 40.5464H980.812C980.179 36.3073 976.547 33.4972 976.047 33.1321C972.284 29.7859 970.128 25.0138 970.128 20.0287C970.128 10.29 978.187 2.36532 988.091 2.36532C997.996 2.36532 1006.05 10.2893 1006.05 20.0287C1006.05 25.0138 1003.9 29.781 1000.13 33.1295Z" fill="#436C8F" fill-opacity="0.41"/>
<path d="M304.984 0.00721159C293.761 0.00721159 284.628 8.98685 284.628 20.024C284.628 25.705 287.099 31.1418 291.404 34.9347C291.45 34.9767 291.5 35.0108 291.551 35.045C292.008 35.389 294.978 37.7502 295.371 41.0701C294.417 41.6663 293.779 42.7064 293.779 43.8962V45.2514C293.779 46.0867 294.102 46.8405 294.618 47.4288C294.102 48.0171 293.779 48.7709 293.779 49.6062V50.9614C293.779 52.8105 295.309 54.3154 297.19 54.3154H298.792C299.353 57.1783 301.918 59.3452 304.989 59.3452C308.061 59.3452 310.623 57.1757 311.186 54.3154H312.789C314.669 54.3154 316.2 52.8105 316.2 50.9614L316.192 49.6062C316.192 48.7709 315.869 48.0171 315.353 47.4288C315.869 46.8405 316.192 46.0867 316.192 45.2514V43.8962C316.192 42.7064 315.553 41.6663 314.6 41.0701C314.974 37.9525 317.642 35.6569 318.321 35.1211C318.382 35.0843 318.444 35.0423 318.5 34.9924C322.848 31.1945 325.34 25.7391 325.34 20.0239C325.34 8.98742 316.209 0.00721159 304.984 0.00721159ZM303.269 40.5443L300.871 29.9335L302.546 27.4016L303.905 30.2119C304.103 30.6217 304.525 30.8817 304.984 30.8817C305.446 30.8817 305.866 30.619 306.063 30.2119L307.423 27.4016L309.098 29.9335L306.699 40.5443H303.269ZM312.781 42.8977C313.342 42.8977 313.799 43.3468 313.799 43.8984V45.2536C313.799 45.8052 313.342 46.2543 312.781 46.2543L297.187 46.2517C296.626 46.2517 296.169 45.8026 296.169 45.251V43.8957C296.169 43.3442 296.626 42.895 297.187 42.895L312.781 42.8977ZM304.984 56.9914C303.24 56.9914 301.76 55.8646 301.253 54.315H308.716C308.208 55.8646 306.729 56.9914 304.984 56.9914ZM313.799 50.961C313.799 51.5125 313.342 51.9617 312.781 51.9617L297.188 51.959C296.627 51.959 296.17 51.5099 296.17 50.9583V49.6057C296.17 49.0542 296.627 48.605 297.188 48.605H312.781C313.342 48.605 313.799 49.0541 313.799 49.6057V50.961ZM317.028 33.1295C316.529 33.4972 312.896 36.3049 312.263 40.5438H309.151L311.47 30.29L316.807 24.9556C317.271 24.4933 317.263 23.7474 316.793 23.2904C316.323 22.8334 315.565 22.8413 315.1 23.3035L310.567 27.8368L308.265 24.3567C308.03 23.9995 307.621 23.7999 307.183 23.8236C306.75 23.8524 306.368 24.1072 306.181 24.4907L304.985 26.9675L303.788 24.4933C303.601 24.1098 303.219 23.8524 302.786 23.8262C302.356 23.7999 301.94 24.0022 301.705 24.3594L299.402 27.8395L294.869 23.3061C294.407 22.8439 293.649 22.836 293.176 23.293C292.706 23.7474 292.698 24.4933 293.163 24.9582L298.499 30.2926L300.818 40.5464H297.706C297.073 36.3073 293.44 33.4972 292.941 33.1321C289.177 29.7859 287.022 25.0138 287.022 20.0287C287.022 10.29 295.08 2.36532 304.985 2.36532C314.89 2.36532 322.948 10.2893 322.948 20.0287C322.948 25.0138 320.792 29.781 317.028 33.1295Z" fill="#436C8F" fill-opacity="0.41"/>
<path d="M1158.87 0.00721159C1147.64 0.00721159 1138.51 8.98685 1138.51 20.024C1138.51 25.705 1140.98 31.1418 1145.29 34.9347C1145.33 34.9767 1145.38 35.0108 1145.43 35.045C1145.89 35.389 1148.86 37.7502 1149.25 41.0701C1148.3 41.6663 1147.66 42.7064 1147.66 43.8962V45.2514C1147.66 46.0867 1147.99 46.8405 1148.5 47.4288C1147.99 48.0171 1147.66 48.7709 1147.66 49.6062V50.9614C1147.66 52.8105 1149.19 54.3154 1151.07 54.3154H1152.68C1153.24 57.1783 1155.8 59.3452 1158.87 59.3452C1161.94 59.3452 1164.51 57.1757 1165.07 54.3154H1166.67C1168.55 54.3154 1170.08 52.8105 1170.08 50.9614L1170.07 49.6062C1170.07 48.7709 1169.75 48.0171 1169.24 47.4288C1169.75 46.8405 1170.07 46.0867 1170.07 45.2514V43.8962C1170.07 42.7064 1169.44 41.6663 1168.48 41.0701C1168.86 37.9525 1171.53 35.6569 1172.2 35.1211C1172.27 35.0843 1172.33 35.0423 1172.38 34.9924C1176.73 31.1945 1179.22 25.7391 1179.22 20.0239C1179.22 8.98742 1170.09 0.00721159 1158.87 0.00721159ZM1157.15 40.5443L1154.75 29.9335L1156.43 27.4016L1157.79 30.2119C1157.99 30.6217 1158.41 30.8817 1158.87 30.8817C1159.33 30.8817 1159.75 30.619 1159.95 30.2119L1161.31 27.4016L1162.98 29.9335L1160.58 40.5443H1157.15ZM1166.66 42.8977C1167.23 42.8977 1167.68 43.3468 1167.68 43.8984V45.2536C1167.68 45.8052 1167.23 46.2543 1166.66 46.2543L1151.07 46.2517C1150.51 46.2517 1150.05 45.8026 1150.05 45.251V43.8957C1150.05 43.3442 1150.51 42.895 1151.07 42.895L1166.66 42.8977ZM1158.87 56.9914C1157.12 56.9914 1155.64 55.8646 1155.14 54.315H1162.6C1162.09 55.8646 1160.61 56.9914 1158.87 56.9914ZM1167.68 50.961C1167.68 51.5125 1167.23 51.9617 1166.66 51.9617L1151.07 51.959C1150.51 51.959 1150.05 51.5099 1150.05 50.9583V49.6057C1150.05 49.0542 1150.51 48.605 1151.07 48.605H1166.66C1167.23 48.605 1167.68 49.0541 1167.68 49.6057V50.961ZM1170.91 33.1295C1170.41 33.4972 1166.78 36.3049 1166.15 40.5438H1163.03L1165.35 30.29L1170.69 24.9556C1171.15 24.4933 1171.15 23.7474 1170.68 23.2904C1170.21 22.8334 1169.45 22.8413 1168.98 23.3035L1164.45 27.8368L1162.15 24.3567C1161.91 23.9995 1161.5 23.7999 1161.07 23.8236C1160.63 23.8524 1160.25 24.1072 1160.06 24.4907L1158.87 26.9675L1157.67 24.4933C1157.48 24.1098 1157.1 23.8524 1156.67 23.8262C1156.24 23.7999 1155.82 24.0022 1155.59 24.3594L1153.29 27.8395L1148.75 23.3061C1148.29 22.8439 1147.53 22.836 1147.06 23.293C1146.59 23.7474 1146.58 24.4933 1147.05 24.9582L1152.38 30.2926L1154.7 40.5464H1151.59C1150.96 36.3073 1147.32 33.4972 1146.82 33.1321C1143.06 29.7859 1140.9 25.0138 1140.9 20.0287C1140.9 10.29 1148.96 2.36532 1158.87 2.36532C1168.77 2.36532 1176.83 10.2893 1176.83 20.0287C1176.83 25.0138 1174.68 29.781 1170.91 33.1295Z" fill="#436C8F" fill-opacity="0.41"/>
<path d="M475.761 0.00721159C464.537 0.00721159 455.404 8.98685 455.404 20.024C455.404 25.705 457.875 31.1418 462.181 34.9347C462.226 34.9767 462.277 35.0108 462.328 35.045C462.785 35.389 465.755 37.7502 466.147 41.0701C465.194 41.6663 464.555 42.7064 464.555 43.8962V45.2514C464.555 46.0867 464.879 46.8405 465.394 47.4288C464.879 48.0171 464.555 48.7709 464.555 49.6062V50.9614C464.555 52.8105 466.086 54.3154 467.966 54.3154H469.569C470.13 57.1783 472.694 59.3452 475.766 59.3452C478.838 59.3452 481.399 57.1757 481.963 54.3154H483.565C485.446 54.3154 486.976 52.8105 486.976 50.9614L486.968 49.6062C486.968 48.7709 486.645 48.0171 486.13 47.4288C486.645 46.8405 486.968 46.0867 486.968 45.2514V43.8962C486.968 42.7064 486.33 41.6663 485.376 41.0701C485.75 37.9525 488.419 35.6569 489.097 35.1211C489.159 35.0843 489.22 35.0423 489.276 34.9924C493.625 31.1945 496.117 25.7391 496.117 20.0239C496.117 8.98742 486.985 0.00721159 475.761 0.00721159ZM474.046 40.5443L471.647 29.9335L473.322 27.4016L474.682 30.2119C474.879 30.6217 475.301 30.8817 475.761 30.8817C476.223 30.8817 476.642 30.619 476.84 30.2119L478.2 27.4016L479.874 29.9335L477.476 40.5443H474.046ZM483.558 42.8977C484.118 42.8977 484.575 43.3468 484.575 43.8984V45.2536C484.575 45.8052 484.119 46.2543 483.558 46.2543L467.964 46.2517C467.403 46.2517 466.946 45.8026 466.946 45.251V43.8957C466.946 43.3442 467.403 42.895 467.964 42.895L483.558 42.8977ZM475.761 56.9914C474.017 56.9914 472.537 55.8646 472.03 54.315H479.492C478.985 55.8646 477.505 56.9914 475.761 56.9914ZM484.576 50.961C484.576 51.5125 484.119 51.9617 483.558 51.9617L467.964 51.959C467.403 51.959 466.947 51.5099 466.947 50.9583V49.6057C466.947 49.0542 467.403 48.605 467.964 48.605H483.558C484.119 48.605 484.576 49.0541 484.576 49.6057V50.961ZM487.805 33.1295C487.306 33.4972 483.673 36.3049 483.04 40.5438H479.928L482.247 30.29L487.583 24.9556C488.048 24.4933 488.04 23.7474 487.57 23.2904C487.1 22.8334 486.341 22.8413 485.876 23.3035L481.344 27.8368L479.041 24.3567C478.806 23.9995 478.398 23.7999 477.959 23.8236C477.527 23.8524 477.145 24.1072 476.958 24.4907L475.761 26.9675L474.565 24.4933C474.378 24.1098 473.996 23.8524 473.563 23.8262C473.133 23.7999 472.716 24.0022 472.481 24.3594L470.179 27.8395L465.646 23.3061C465.184 22.8439 464.425 22.836 463.953 23.293C463.482 23.7474 463.474 24.4933 463.939 24.9582L469.276 30.2926L471.594 40.5464H468.483C467.85 36.3073 464.217 33.4972 463.717 33.1321C459.954 29.7859 457.798 25.0138 457.798 20.0287C457.798 10.29 465.857 2.36532 475.762 2.36532C485.666 2.36532 493.725 10.2893 493.725 20.0287C493.725 25.0138 491.569 29.781 487.805 33.1295Z" fill="#436C8F" fill-opacity="0.41"/>
<path d="M817.314 0.00721159C806.09 0.00721159 796.958 8.98685 796.958 20.024C796.958 25.705 799.428 31.1418 803.734 34.9347C803.78 34.9767 803.83 35.0108 803.881 35.045C804.338 35.389 807.308 37.7502 807.701 41.0701C806.747 41.6663 806.109 42.7064 806.109 43.8962V45.2514C806.109 46.0867 806.432 46.8405 806.947 47.4288C806.432 48.0171 806.109 48.7709 806.109 49.6062V50.9614C806.109 52.8105 807.639 54.3154 809.52 54.3154H811.122C811.683 57.1783 814.247 59.3452 817.319 59.3452C820.391 59.3452 822.952 57.1757 823.516 54.3154H825.119C826.999 54.3154 828.53 52.8105 828.53 50.9614L828.522 49.6062C828.522 48.7709 828.198 48.0171 827.683 47.4288C828.198 46.8405 828.522 46.0867 828.522 45.2514V43.8962C828.522 42.7064 827.883 41.6663 826.93 41.0701C827.304 37.9525 829.972 35.6569 830.65 35.1211C830.712 35.0843 830.773 35.0423 830.829 34.9924C835.178 31.1945 837.67 25.7391 837.67 20.0239C837.67 8.98742 828.539 0.00721159 817.314 0.00721159ZM815.599 40.5443L813.201 29.9335L814.875 27.4016L816.235 30.2119C816.433 30.6217 816.855 30.8817 817.314 30.8817C817.776 30.8817 818.196 30.619 818.393 30.2119L819.753 27.4016L821.427 29.9335L819.029 40.5443H815.599ZM825.111 42.8977C825.672 42.8977 826.128 43.3468 826.128 43.8984V45.2536C826.128 45.8052 825.672 46.2543 825.111 46.2543L809.517 46.2517C808.956 46.2517 808.499 45.8026 808.499 45.251V43.8957C808.499 43.3442 808.956 42.895 809.517 42.895L825.111 42.8977ZM817.314 56.9914C815.57 56.9914 814.09 55.8646 813.583 54.315H821.046C820.538 55.8646 819.058 56.9914 817.314 56.9914ZM826.129 50.961C826.129 51.5125 825.672 51.9617 825.111 51.9617L809.517 51.959C808.957 51.959 808.5 51.5099 808.5 50.9583V49.6057C808.5 49.0542 808.957 48.605 809.517 48.605H825.111C825.672 48.605 826.129 49.0541 826.129 49.6057V50.961ZM829.358 33.1295C828.859 33.4972 825.226 36.3049 824.593 40.5438H821.481L823.8 30.29L829.137 24.9556C829.601 24.4933 829.593 23.7474 829.123 23.2904C828.653 22.8334 827.894 22.8413 827.43 23.3035L822.897 27.8368L820.594 24.3567C820.359 23.9995 819.951 23.7999 819.513 23.8236C819.08 23.8524 818.698 24.1072 818.511 24.4907L817.314 26.9675L816.118 24.4933C815.931 24.1098 815.549 23.8524 815.116 23.8262C814.686 23.7999 814.269 24.0022 814.034 24.3594L811.732 27.8395L807.199 23.3061C806.737 22.8439 805.979 22.836 805.506 23.293C805.036 23.7474 805.028 24.4933 805.492 24.9582L810.829 30.2926L813.148 40.5464H810.036C809.403 36.3073 805.77 33.4972 805.271 33.1321C801.507 29.7859 799.352 25.0138 799.352 20.0287C799.352 10.29 807.41 2.36532 817.315 2.36532C827.219 2.36532 835.278 10.2893 835.278 20.0287C835.278 25.0138 833.122 29.781 829.358 33.1295Z" fill="#436C8F" fill-opacity="0.41"/>
<path d="M134.208 0.00721159C122.984 0.00721159 113.851 8.98685 113.851 20.024C113.851 25.705 116.322 31.1418 120.628 34.9347C120.673 34.9767 120.724 35.0108 120.775 35.045C121.231 35.389 124.202 37.7502 124.594 41.0701C123.641 41.6663 123.002 42.7064 123.002 43.8962V45.2514C123.002 46.0867 123.325 46.8405 123.841 47.4288C123.325 48.0171 123.002 48.7709 123.002 49.6062V50.9614C123.002 52.8105 124.533 54.3154 126.413 54.3154H128.016C128.577 57.1783 131.141 59.3452 134.213 59.3452C137.284 59.3452 139.846 57.1757 140.41 54.3154H142.012C143.893 54.3154 145.423 52.8105 145.423 50.9614L145.415 49.6062C145.415 48.7709 145.092 48.0171 144.576 47.4288C145.092 46.8405 145.415 46.0867 145.415 45.2514V43.8962C145.415 42.7064 144.777 41.6663 143.823 41.0701C144.197 37.9525 146.866 35.6569 147.544 35.1211C147.605 35.0843 147.667 35.0423 147.723 34.9924C152.071 31.1945 154.564 25.7391 154.564 20.0239C154.564 8.98742 145.432 0.00721159 134.208 0.00721159ZM132.493 40.5443L130.094 29.9335L131.769 27.4016L133.129 30.2119C133.326 30.6217 133.748 30.8817 134.208 30.8817C134.67 30.8817 135.089 30.619 135.287 30.2119L136.646 27.4016L138.321 29.9335L135.922 40.5443H132.493ZM142.004 42.8977C142.565 42.8977 143.022 43.3468 143.022 43.8984V45.2536C143.022 45.8052 142.565 46.2543 142.004 46.2543L126.411 46.2517C125.85 46.2517 125.393 45.8026 125.393 45.251V43.8957C125.393 43.3442 125.85 42.895 126.411 42.895L142.004 42.8977ZM134.208 56.9914C132.464 56.9914 130.984 55.8646 130.476 54.315H137.939C137.432 55.8646 135.952 56.9914 134.208 56.9914ZM143.023 50.961C143.023 51.5125 142.566 51.9617 142.005 51.9617L126.411 51.959C125.85 51.959 125.393 51.5099 125.393 50.9583V49.6057C125.393 49.0542 125.85 48.605 126.411 48.605H142.005C142.566 48.605 143.023 49.0541 143.023 49.6057V50.961ZM146.252 33.1295C145.752 33.4972 142.12 36.3049 141.487 40.5438H138.375L140.693 30.29L146.03 24.9556C146.495 24.4933 146.487 23.7474 146.017 23.2904C145.547 22.8334 144.788 22.8413 144.323 23.3035L139.79 27.8368L137.488 24.3567C137.253 23.9995 136.844 23.7999 136.406 23.8236C135.974 23.8524 135.592 24.1072 135.405 24.4907L134.208 26.9675L133.011 24.4933C132.824 24.1098 132.442 23.8524 132.01 23.8262C131.58 23.7999 131.163 24.0022 130.928 24.3594L128.626 27.8395L124.093 23.3061C123.631 22.8439 122.872 22.836 122.399 23.293C121.929 23.7474 121.921 24.4933 122.386 24.9582L127.723 30.2926L130.041 40.5464H126.929C126.296 36.3073 122.664 33.4972 122.164 33.1321C118.401 29.7859 116.245 25.0138 116.245 20.0287C116.245 10.29 124.304 2.36532 134.208 2.36532C144.113 2.36532 152.172 10.2893 152.172 20.0287C152.172 25.0138 150.015 29.781 146.252 33.1295Z" fill="#436C8F" fill-opacity="0.41"/>
</svg>
