<svg width="143" height="143" viewBox="0 0 143 143" fill="none" xmlns="http://www.w3.org/2000/svg">
<path d="M71.5 7.15C46.5694 7.15 26.2934 27.0756 26.2934 51.5644C26.2934 64.6075 32.1028 76.9412 42.225 85.3982C45.5208 88.1521 47.4088 92.3191 47.4088 96.8438C47.4088 98.9497 48.7159 100.743 50.5592 101.486V108.859L49.6375 108.965C48.4645 109.105 47.621 110.172 47.7607 111.35C47.8891 112.44 48.8164 113.238 49.8889 113.238C49.9727 113.238 50.0621 113.233 50.1459 113.222L50.5592 113.171V115.4C50.5592 116.411 50.6877 117.394 50.9056 118.344L50.3637 118.411C49.1907 118.551 48.3471 119.618 48.4869 120.796C48.6153 121.886 49.5426 122.684 50.6151 122.684C50.6989 122.684 50.7883 122.679 50.8721 122.668L52.6484 122.455C54.3075 125.002 56.8267 126.93 59.7984 127.823C61.2284 132.549 65.5743 135.85 70.6463 135.85H72.35C77.4276 135.85 81.7734 132.549 83.1922 127.823C87.8118 126.438 91.3477 122.545 92.2247 117.73L93.3698 117.595C94.5428 117.456 95.3864 116.389 95.2467 115.21C95.107 114.037 94.0457 113.194 92.8614 113.333L92.4481 113.384V108.172L93.3698 108.06C94.5428 107.921 95.3863 106.854 95.2466 105.675C95.107 104.502 94.0457 103.658 92.8614 103.798L92.448 103.848V101.782C94.889 101.447 96.7827 99.3741 96.7827 96.8438V95.7936C96.7827 91.4646 98.6261 87.3364 101.849 84.4764C111.295 76.0696 116.714 64.0703 116.714 51.5635C116.708 27.0748 96.4309 7.14917 71.5017 7.14917L71.5 7.15ZM72.3546 131.56H70.6509C68.1931 131.56 66.0257 130.303 64.7633 128.37H78.2478C76.9742 130.303 74.8125 131.56 72.3546 131.56ZM79.4768 124.08H63.5237C61.2949 124.08 59.2727 123.231 57.731 121.846L87.6552 118.271C86.471 121.651 83.253 124.08 79.4768 124.08ZM88.1517 113.892L55.2002 117.83C54.9768 117.059 54.8483 116.243 54.8483 115.4V112.657L88.1573 108.674L88.1517 113.892ZM54.8484 108.345V101.854H88.1574V104.368L54.8484 108.345ZM67.5956 60.8974L67.4671 59.7076C67.4113 59.2105 67.685 58.8195 67.9699 58.7692C69.1261 58.5625 70.2825 58.462 71.4945 58.462C72.7123 58.462 73.8629 58.5625 75.0249 58.7692C75.3098 58.8194 75.5835 59.2105 75.5276 59.7076L75.3992 60.903C75.2539 62.3051 75.6729 63.7184 76.5555 64.7796C77.3822 65.7683 78.5217 66.366 79.8176 66.461C79.8902 66.4666 80.0689 66.4777 80.1471 66.4777C81.7224 66.4777 83.197 65.6399 84.1075 64.2155C84.7499 63.1709 84.8672 63.048 85.342 62.5341L85.6045 62.2492C85.6101 62.2436 85.7051 62.1319 85.7107 62.1263C85.7219 62.1096 85.828 61.9923 85.8392 61.9755C86.381 61.3387 87.1798 61.1041 87.9338 61.361C89.2074 61.7911 90.4475 62.2939 91.6149 62.8581C91.749 62.9251 91.7881 63.143 91.7937 63.1877C91.816 63.3608 91.7825 63.6178 91.6038 63.7742C86.3585 68.444 82.4429 74.0858 79.9739 80.5381C79.0187 83.0016 78.298 85.571 77.7954 88.202C75.8291 87.3306 73.7009 86.8726 71.5001 86.8726C69.3048 86.8726 67.1766 87.3306 65.2048 88.2076C64.7021 85.5767 63.9815 83.0071 63.0263 80.5492C60.5517 74.0919 56.6417 68.4502 51.3853 63.7753C51.2177 63.6245 51.1842 63.3676 51.2065 63.1944C51.2121 63.1497 51.2512 62.9263 51.3797 62.8648C52.5472 62.3007 53.7872 61.7979 55.072 61.3622C55.8149 61.1052 56.6136 61.3454 57.1164 61.932L57.284 62.1275C57.2896 62.1331 57.3846 62.2448 57.3901 62.2504L57.6527 62.5352C58.1275 63.0492 58.2392 63.172 58.9095 64.2557C59.8871 65.7751 61.5517 66.6241 63.2107 66.4622C65.6853 66.289 67.6235 64.0938 67.6235 61.4683C67.6235 61.2561 67.618 61.0482 67.5956 60.8974ZM63.5178 94.4738C63.8921 94.0996 64.3278 93.7253 64.8361 93.3287C68.7183 90.4854 74.2875 90.491 78.1586 93.3231C79.6724 94.4347 80.8621 95.8927 81.6553 97.5516H61.3508C61.8982 96.4288 62.6129 95.3787 63.5178 94.4738ZM98.9947 81.2686C94.8611 84.9442 92.4926 90.2396 92.4926 95.7917V96.8419C92.4926 97.2385 92.1686 97.5625 91.772 97.5625H86.2754C85.3984 94.9202 83.84 92.5575 81.734 90.714C82.1697 87.7424 82.9126 84.8376 83.9795 82.0837C86.2028 76.2743 89.7274 71.1967 94.4476 66.9958C95.6765 65.9177 96.2741 64.2811 96.0452 62.6108C95.8273 61.0188 94.8721 59.667 93.4812 58.9968C92.1517 58.3544 90.7496 57.7846 89.314 57.3042C86.9009 56.4775 84.2587 57.226 82.5494 59.2314L84.1749 60.6335L82.4433 59.3543L82.1975 59.6225C81.5495 60.3207 81.2814 60.6335 80.4771 61.9406C80.3598 62.1194 80.2201 62.192 80.2648 62.1976C80.2257 62.192 80.1642 62.1864 80.1028 62.1864C79.9967 62.1753 79.9073 62.0971 79.857 62.0356C79.7118 61.868 79.6447 61.6111 79.6727 61.3597L79.8012 60.1699C80.0916 57.4663 78.3265 54.9973 75.7793 54.5504C74.3716 54.2991 72.9696 54.1762 71.5004 54.1762C70.0312 54.1762 68.6293 54.2991 67.2272 54.5504C64.6856 54.9973 62.9149 57.4663 63.2053 60.1699L63.3338 61.4658C63.3338 61.8569 63.1103 62.1697 62.8645 62.1864C62.7919 62.2088 62.6355 62.1082 62.5406 61.9686C61.7194 60.6335 61.4513 60.3264 60.8034 59.6225L60.4236 59.198C58.7422 57.2206 56.0945 56.4777 53.6926 57.2932C52.2458 57.7792 50.8437 58.349 49.5142 58.9914C48.1289 59.6617 47.1682 61.0135 46.9502 62.6054C46.7212 64.2701 47.3189 65.9067 48.5367 66.9792C53.268 71.1854 56.7927 76.2686 59.0159 82.0829C60.0828 84.8368 60.8201 87.7358 61.2614 90.7132C60.9821 90.959 60.7196 91.1992 60.4794 91.4394C58.7478 93.171 57.491 95.2658 56.7312 97.5559H52.4133C52.0167 97.5559 51.6927 97.2319 51.6927 96.8353C51.6927 91.0427 49.2405 85.669 44.9729 82.0992C35.8231 74.4575 30.5785 63.3247 30.5785 51.5558C30.5841 29.4351 48.9397 11.4371 71.5008 11.4371C94.0619 11.4371 112.417 29.4351 112.417 51.5615C112.417 62.8451 107.524 73.6707 98.9944 81.2669L98.9947 81.2686Z" fill="white"/>
</svg>
