<svg height="191.094" width="455.901" xmlns="http://www.w3.org/2000/svg" xmlns:xlink="http://www.w3.org/1999/xlink"><linearGradient id="a" gradientUnits="objectBoundingBox" x1="1.128" x2="-.012" y1=".237" y2=".792"><stop offset="0" stop-color="#f3f3f3" stop-opacity=".341"/><stop offset="1" stop-color="#7a7a7a"/></linearGradient><clipPath id="b"><path d="m0 0h455.901v191.094h-455.901z"/></clipPath><g clip-path="url(#b)" opacity=".148"><path d="m455.9 125.108c0-27.913-12.617-66.842-33.164-66.842-16.018 0-27.211 23.712-31.354 47.39l-12.038-5.4a4.544 4.544 0 0 0 -3.747.011l-15.93 7.239v-81.074a4.551 4.551 0 0 0 -4.552-4.552h-16.91v-17.328a4.551 4.551 0 0 0 -4.55-4.552h-47.908a4.549 4.549 0 0 0 -4.547 4.552v17.565h-37.163a4.548 4.548 0 0 0 -4.552 4.552v119.573l-20.725-10.895a4.555 4.555 0 0 0 -4.1-.073l-36.467 17.638-32.855-17.554a4.574 4.574 0 0 0 -4.126-.084l-35.564 17.2a4.837 4.837 0 0 0 -.444-.375l-30.61-16.719a4.561 4.561 0 0 0 -4.162-.106l-7.432 3.598a59.012 59.012 0 0 0 3.412-20.893c0-28.838-14.208-61.092-33.222-61.092-18.997 0-33.19 32.253-33.19 61.092 0 23.8 10.377 38.8 28.012 41.226v27.338a4.551 4.551 0 0 0 4.552 4.552h21.187a4.551 4.551 0 0 0 4.552-4.552v-35.287l13.982-6.765 26.515 14.484v27.568a4.549 4.549 0 0 0 4.552 4.552h21.185a4.549 4.549 0 0 0 4.551-4.552v-35.287l14.008-6.776 29.148 15.57v26.493a4.549 4.549 0 0 0 4.551 4.552h21.185a4.549 4.549 0 0 0 4.551-4.552v-35.291l14.026-6.78 22.543 11.852c.124.066.262.058.39.113v30.105a4.551 4.551 0 1 0 9.1 0v-155.322h32.61v11.38h-18.076a4.552 4.552 0 0 0 0 9.1h18.076v8.786h-18.076a4.552 4.552 0 0 0 0 9.1h18.076v8.786h-18.076a4.552 4.552 0 0 0 0 9.1h18.076v8.783h-18.076a4.552 4.552 0 0 0 0 9.1h18.076v8.786h-18.076a4.552 4.552 0 0 0 0 9.1h18.076v63.288a4.549 4.549 0 0 0 4.551 4.552h20.7a4.549 4.549 0 0 0 4.549-4.538v-159.875a4.549 4.549 0 0 0 -4.552-4.552h-16.148v-13.016h38.8v17.332a4.549 4.549 0 0 0 4.551 4.552h16.91v80.656l-19.222 8.735a4.549 4.549 0 0 0 -2.669 4.144v61.839a4.544 4.544 0 0 0 4.552 4.552l21.887-.007a4.552 4.552 0 0 0 4.548-4.551v-41.629l17.744-8.062 14.015 6.845c.1.047.211.04.313.08 3.885 15.271 13.006 24.666 26.1 26.519v16.436a4.552 4.552 0 1 0 9.1 0v-16.322c18.217-2.17 28.962-18.676 28.962-45.111m-446.791-7.129c0-25.267 12.379-51.989 24.086-51.989s24.119 26.723 24.119 51.989c0 15.136-4.486 25.332-12.824 29.847l-1.719.83a22.171 22.171 0 0 1 -4.988 1.435v-10.4a4.552 4.552 0 0 0 -9.1 0v10.409c-12.656-2.1-19.574-13.3-19.574-32.121m28.012 64.012v-20.491l8.921-4.315a28.422 28.422 0 0 0 3.164-1.518v26.322zm82.867 0h-12.079v-20.491l12.082-5.844zm73.447 0h-12.083v-20.491l12.085-5.848zm108.466-150.771v150.771h-11.592v-150.771zm48.672 90.422v17.219l-12.788 5.811v-17.219zm0 60.156-12.784.007v-27.134l12.784-5.811zm28.918-54.258a4.555 4.555 0 0 0 -3.882-.055l-15.93 7.239v-17.219l17.827-8.1 12.62 5.655c-.331 3.445-.506 6.82-.506 10.046 0 2.629.142 5.123.35 7.552zm19.233-2.432c0-2.032.084-4.067.208-6.1l18.916 8.48v33.368c-12.22-2.607-19.124-15.3-19.124-35.749m28.227 35.873v-36.44a4.549 4.549 0 0 0 -2.687-4.151l-24.341-10.909c3.372-22.448 13.319-42.111 22.823-42.111 11.7 0 24.061 29.676 24.061 57.739 0 20.839-7.184 33.6-19.859 35.873" fill="url(#a)" transform="translate(0 -.001)"/></g></svg>