<?xml version="1.0" encoding="UTF-8"?><svg id="Layer_2" xmlns="http://www.w3.org/2000/svg" viewBox="0 0 16.617 24.58"><g id="Layer_1-2"><path d="M2.332,18.283c.65-.89,1.226-1.893,1.731-3.009.503-1.117.756-2.086.756-2.909,0-1.042-.281-1.564-.842-1.564-.14,0-.28.103-.42.313-1.25,2.061-2.34,4.081-3.27,6.064-.101.216-.195.42-.285.62v3.193c.134-.122.279-.262.439-.427.612-.632,1.243-1.393,1.893-2.283Z" style="fill:#fff;"/><path d="M2.829,10.029c.025-.049.038-.099.038-.148,0-.294-.325-.442-.975-.442-.115,0-.173-.06-.173-.183,0-.21.23-.454.689-.737.128-.085.344-.129.651-.129h.306c.28,0,.452-.049.516-.147,1.441-2.491,2.884-4.616,4.332-6.378.668-.812,1.265-1.428,1.798-1.866H1.406C.911,0,.553.111.332.332s-.332.579-.332,1.074v13.354c.849-1.489,1.792-3.066,2.829-4.731Z" style="fill:#fff;"/><path d="M15.165,10.306h-6.66v-1.476c-.106.065-.231.124-.397.168-.255,0-.612.076-1.071.229-.458.154-.752.267-.879.34-.331.16-.497.313-.497.461,0,.147.178.337.535.571.128.073.249.22.363.442.115.22.172.503.172.846,0,.785-.385,1.914-1.157,3.386-.771,1.472-1.689,2.913-2.754,4.324-.89,1.179-1.831,2.228-2.819,3.158v.41c0,.495.11.853.332,1.074.221.222.579.332,1.074.332h5.692c.494,0,.852-.11,1.074-.332s.332-.579.332-1.074v-5.361h6.66c.494,0,.852-.111,1.074-.332.221-.221.332-.579.332-1.074v-4.687c0-.494-.111-.853-.332-1.074-.222-.221-.58-.332-1.074-.332Z" style="fill:#fff;"/><path d="M16.285.332c-.222-.221-.58-.332-1.074-.332h-2.84c.005.056.019.101.019.163,0,.798-.306,1.721-.918,2.771-.612,1.048-1.323,1.935-2.132,2.659-.81.725-1.489,1.086-2.036,1.086-.141,0-.211-.036-.211-.109,0-.111.083-.222.249-.333.701-.454,1.377-1.177,2.027-2.172.65-.993.975-1.698.975-2.116,0-.135-.051-.202-.153-.202-.485,0-1.342.893-2.572,2.678-1.23,1.785-1.846,2.93-1.846,3.433,0,.282.204.422.612.422l2.118-.105v-.714h6.707c.494,0,.852-.11,1.074-.332s.332-.579.332-1.074V1.406c0-.494-.111-.852-.332-1.074Z" style="fill:#fff;"/><path d="M11.563,22.731h-.667v1.849h-.383v-1.849h-.667v-.315h1.717v.315ZM13.149,24.007l.609-1.591h.588v2.164h-.384v-1.759h-.01l-.677,1.759h-.263l-.678-1.759h-.01v1.759h-.384v-2.164h.588l.62,1.591Z" style="fill:#fff;"/></g></svg>