<?xml version="1.0" encoding="UTF-8"?><svg id="Layer_2" xmlns="http://www.w3.org/2000/svg" viewBox="0 0 151.881 118.376"><g id="Layer_1-2"><path d="M0,118.376v-44.444c0-21.063,5.019-37.703,15.057-49.92C25.102,11.795,39.737,3.791,58.977,0v21.906c-14.323,4.496-23.94,12.217-28.857,23.17-2.528,5.76-3.581,11.723-3.16,17.904h33.069v55.397H0ZM150.827,21.906c-14.185,4.351-23.729,12.217-28.646,23.591-2.811,6.036-3.929,11.868-3.37,17.483h33.069v55.397h-60.031v-44.444c0-21.347,5.164-38.052,15.478-50.131,10.328-12.079,24.826-20.01,43.499-23.802v21.906Z" style="fill:#f7a800; stroke-width:0px;"/></g></svg>