<svg width="25" height="27" viewBox="0 0 25 27" fill="none" xmlns="http://www.w3.org/2000/svg">
<path fill-rule="evenodd" clip-rule="evenodd" d="M23.3221 23.5453C23.3221 24.1966 22.8187 24.7262 22.1997 24.7262H12.6717V14.1901H2.12239V3.3617C2.12239 2.71046 2.62578 2.18085 3.24478 2.18085H22.1997C22.8187 2.18085 23.3221 2.71046 23.3221 3.3617V23.5453ZM2.12239 23.5453V15.3709H11.5493V24.7262H3.24478C2.62578 24.7262 2.12239 24.1966 2.12239 23.5453ZM22.1997 1H3.24478C2.00734 1 1 2.05981 1 3.3617V23.5453C1 24.8478 2.00734 25.907 3.24478 25.907H22.1997C23.4377 25.907 24.4445 24.8478 24.4445 23.5453V3.3617C24.4445 2.05981 23.4377 1 22.1997 1Z" fill="#738F6F" stroke="#738F6F" stroke-width="0.3"/>
</svg>
