<svg xmlns="http://www.w3.org/2000/svg" xmlns:xlink="http://www.w3.org/1999/xlink" width="455.901" height="191.094" viewBox="0 0 455.901 191.094">
  <defs>
    <linearGradient id="linear-gradient" x1="1.128" y1="0.237" x2="-0.012" y2="0.792" gradientUnits="objectBoundingBox">
      <stop offset="0" stop-color="#f3f3f3" stop-opacity="0.341"/>
      <stop offset="1" stop-color="#7a7a7a"/>
    </linearGradient>
    <clipPath id="clip-path">
      <rect id="Rectangle_612" data-name="Rectangle 612" width="455.901" height="191.094" fill="url(#linear-gradient)"/>
    </clipPath>
  </defs>
  <g id="Group_3252" data-name="Group 3252" transform="translate(0 0)" opacity="0.148" style="mix-blend-mode: color-dodge;isolation: isolate">
    <g id="Group_904" data-name="Group 904" transform="translate(0 0)" clip-path="url(#clip-path)">
      <path id="Path_6725" data-name="Path 6725" d="M455.9,125.108c0-27.913-12.617-66.842-33.164-66.842-16.018,0-27.211,23.712-31.354,47.39l-12.038-5.4a4.544,4.544,0,0,0-3.747.011l-15.93,7.239V26.432a4.551,4.551,0,0,0-4.552-4.552h-16.91V4.552A4.551,4.551,0,0,0,333.655,0H285.747A4.549,4.549,0,0,0,281.2,4.552V22.117H244.037a4.548,4.548,0,0,0-4.552,4.552V146.242L218.76,135.347a4.555,4.555,0,0,0-4.1-.073l-36.467,17.638-32.855-17.554a4.574,4.574,0,0,0-4.126-.084l-35.564,17.2a4.837,4.837,0,0,0-.444-.375L74.594,135.38a4.561,4.561,0,0,0-4.162-.106L63,138.872a59.012,59.012,0,0,0,3.412-20.893c0-28.838-14.208-61.092-33.222-61.092C14.193,56.887,0,89.14,0,117.979c0,23.8,10.377,38.8,28.012,41.226v27.338a4.551,4.551,0,0,0,4.552,4.552H53.751a4.551,4.551,0,0,0,4.552-4.552V151.256l13.982-6.765L98.8,158.975v27.568a4.549,4.549,0,0,0,4.552,4.552h21.185a4.549,4.549,0,0,0,4.551-4.552V151.256l14.008-6.776,29.148,15.57v26.493a4.549,4.549,0,0,0,4.551,4.552H197.98a4.549,4.549,0,0,0,4.551-4.552V151.252l14.026-6.78L239.1,156.324c.124.066.262.058.39.113v30.105a4.551,4.551,0,1,0,9.1,0V31.22H281.2V42.6H263.124a4.552,4.552,0,0,0,0,9.1H281.2v8.786H263.124a4.552,4.552,0,0,0,0,9.1H281.2v8.786H263.124a4.552,4.552,0,0,0,0,9.1H281.2v8.783H263.124a4.552,4.552,0,0,0,0,9.1H281.2v8.786H263.124a4.552,4.552,0,0,0,0,9.1H281.2v63.288a4.549,4.549,0,0,0,4.551,4.552h20.7A4.549,4.549,0,0,0,311,186.543V26.668a4.549,4.549,0,0,0-4.552-4.552H290.3V9.1h38.8V26.432a4.549,4.549,0,0,0,4.551,4.552h16.91v80.656l-19.222,8.735a4.549,4.549,0,0,0-2.669,4.144v61.839a4.544,4.544,0,0,0,4.552,4.552h0l21.887-.007a4.552,4.552,0,0,0,4.548-4.551V144.723l17.744-8.062,14.015,6.845c.1.047.211.04.313.08,3.885,15.271,13.006,24.666,26.1,26.519v16.436a4.552,4.552,0,1,0,9.1,0V170.219c18.217-2.17,28.962-18.676,28.962-45.111M9.1,117.979C9.1,92.712,21.479,65.99,33.186,65.99s24.119,26.723,24.119,51.989c0,15.136-4.486,25.332-12.824,29.847l-1.719.83a22.171,22.171,0,0,1-4.988,1.435v-10.4a4.552,4.552,0,0,0-9.1,0V150.1C16.018,148,9.1,136.8,9.1,117.979m28.012,64.012V161.5l8.921-4.315a28.422,28.422,0,0,0,3.164-1.518v26.322Zm82.867,0H107.9V161.5l12.082-5.844Zm73.447,0H181.343V161.5l12.085-5.848ZM301.892,31.22V181.991H290.3V31.22Zm48.672,90.422v17.219l-12.788,5.811V127.453Zm0,60.156-12.784.007V154.671l12.784-5.811Zm28.918-54.258a4.555,4.555,0,0,0-3.882-.055l-15.93,7.239V117.505l17.827-8.1,12.62,5.655c-.331,3.445-.506,6.82-.506,10.046,0,2.629.142,5.123.35,7.552Zm19.233-2.432c0-2.032.084-4.067.208-6.1l18.916,8.48v33.368c-12.22-2.607-19.124-15.3-19.124-35.749m28.227,35.873V124.54a4.549,4.549,0,0,0-2.687-4.151L399.914,109.48c3.372-22.448,13.319-42.111,22.823-42.111,11.7,0,24.061,29.676,24.061,57.739,0,20.839-7.184,33.6-19.859,35.873" transform="translate(0 -0.001)" fill="url(#linear-gradient)"/>
    </g>
  </g>
</svg>
